<?xml version="1.0" encoding="utf-8"?>
<!-- Generator: Adobe Illustrator 24.3.0, SVG Export Plug-In . SVG Version: 6.00 Build 0)  -->
<svg version="1.1" id="レイヤー_1のコピー" xmlns="http://www.w3.org/2000/svg" xmlns:xlink="http://www.w3.org/1999/xlink"
	 x="0px" y="0px" viewBox="0 0 350.1 118.3" style="enable-background:new 0 0 350.1 118.3;" xml:space="preserve">
<style type="text/css">
	.st0{fill:#525252;}
	.st1{enable-background:new    ;}
</style>
<image style="display:none;overflow:visible;enable-background:new    ;" width="1612" height="708" xlink:href="8A609C9446C0DAC4.jpg"  transform="matrix(1 0 0 1 -572.2959 108.9636)">
</image>
<g>
	<path class="st0" d="M91,47.5c2.9,0,5.9,0.2,8.8,1c1.6,0.5,2.8,1.5,3.8,2.8c0.9,1.3,1.4,2.8,1.3,4.3c-0.1,2.6-1.4,4.6-3.6,5.8
		c-1.2,0.7-2.3,1.1-3.6,1.4c1.2,0.3,2.4,0.6,3.7,1.1c1.9,0.8,3.3,2.1,4.4,3.8c0.7,1.2,1,2.5,1,3.9c0,1.8-0.5,3.4-1.6,4.8
		c-2,2.3-4.5,3.6-7.6,3.8c-1.7,0.1-3.4,0.2-5.1,0.2H78.9v-1.2h1.1c0.8,0.1,1.7-0.1,2.5-0.4c0.8-0.6,1.2-1.3,1.2-2.3V51.5
		c0-0.6-0.2-1.3-0.7-1.9c-0.3-0.2-0.6-0.5-0.9-0.6c-0.7-0.1-1.4-0.2-2.1-0.2H79v-1.3L91,47.5L91,47.5z M86.5,76.7
		c-0.1,0.8,0.1,1.4,0.5,1.9c0.3,0.3,0.6,0.5,1,0.6c0.6,0.2,1.3,0.3,2,0.2h2c2.6,0.1,5.2-0.3,7.6-1.3c1.2-0.4,2.1-1.2,2.8-2.3
		c0.8-1.3,1.1-2.7,1.1-4.2c0-2.8-1.1-4.9-3.5-6.4c-1.2-0.7-2.4-1.1-3.7-1.3c-1-0.1-2-0.2-3-0.2h-6.8C86.5,63.7,86.5,76.7,86.5,76.7z
		 M93.4,62.5c2,0,3.8-0.5,5.6-1.5c1.9-1.3,2.9-3,3-5.3c-0.1-1.5-0.4-2.9-1.3-4.2c-1-1.2-2.3-2-3.8-2.2c-1.8-0.3-3.5-0.5-5.2-0.5
		h-1.5c-0.9,0-1.7,0.1-2.4,0.4c-0.8,0.5-1.1,1.4-1.1,2.3v11.1C86.6,62.5,93.4,62.5,93.4,62.5z"/>
	<path class="st0" d="M113.4,76.1c0.5,1.2,1.2,2.1,2.3,2.8c1.1,0.7,2.4,1,3.8,0.9c2,0.1,3.8-0.6,5.2-2.2c0.8-1.1,1.4-2.3,2-3.6
		l1.2,0.6c-0.6,1.6-1.4,2.9-2.6,4.2c-1.7,1.6-3.8,2.4-6.1,2.3c-3.2,0.2-5.6-0.9-7.5-3.3c-1-1.2-1.6-2.5-1.9-4
		c-0.3-1.3-0.4-2.5-0.4-3.8c-0.1-3.6,0.9-6.7,3.3-9.3c1.7-1.6,3.8-2.3,6.2-2.3c3.3-0.1,5.7,1.3,7.2,4.2c1,2.3,1.5,4.7,1.6,7.2h-15.6
		C112.1,72,112.5,74.1,113.4,76.1z M124.8,68.5c-0.1-1.7-0.4-3.4-0.9-5.1c-0.4-1.3-1.2-2.3-2.2-3.1c-0.8-0.5-1.7-0.8-2.6-0.7
		c-1.7,0-3.1,0.5-4.3,1.7c-1.7,2.1-2.5,4.6-2.6,7.2H124.8z"/>
	<path class="st0" d="M131.3,47.5l6.6-1V77c0,0.5,0.1,1,0.4,1.4c0.3,0.4,0.6,0.6,1,0.8c0.4,0.1,0.9,0.2,1.4,0.2h1.2v1.3h-10.5v-1.3
		h1.2c0.7,0,1.4-0.1,2-0.5c0.2-0.2,0.4-0.4,0.5-0.7c0.1-0.4,0.2-0.7,0.2-1.1V51.1c0-0.8-0.2-1.4-0.7-1.8c-0.6-0.3-1.3-0.5-1.9-0.5
		h-1L131.3,47.5z"/>
	<path class="st0" d="M142.6,47.5l6.6-1V77c0,0.5,0.1,1,0.4,1.4c0.3,0.4,0.6,0.6,1,0.8c0.4,0.1,0.9,0.2,1.4,0.2h1.2v1.3h-10.5v-1.3
		h1.2c0.7,0,1.4-0.1,2-0.5c0.2-0.2,0.4-0.4,0.5-0.7c0.1-0.4,0.2-0.7,0.2-1.1V51.1c0-0.8-0.2-1.4-0.7-1.8c-0.6-0.3-1.3-0.5-1.9-0.5
		h-1L142.6,47.5z"/>
	<path class="st0" d="M158.7,76.1c0.5,1.2,1.2,2.1,2.3,2.8c1.1,0.7,2.4,1,3.8,0.9c2,0.1,3.8-0.6,5.2-2.2c0.8-1.1,1.4-2.3,2-3.6
		l1.2,0.6c-0.6,1.6-1.4,2.9-2.6,4.2c-1.7,1.6-3.8,2.4-6.1,2.3c-3.2,0.2-5.6-0.9-7.5-3.3c-1-1.2-1.6-2.5-1.9-4
		c-0.3-1.3-0.4-2.5-0.4-3.8c-0.1-3.6,0.9-6.7,3.3-9.3c1.7-1.6,3.8-2.3,6.2-2.3c3.3-0.1,5.7,1.3,7.1,4.2c1,2.3,1.5,4.7,1.6,7.2h-15.6
		C157.3,72,157.8,74.1,158.7,76.1z M170,68.5c-0.1-1.7-0.4-3.4-0.9-5.1c-0.4-1.3-1.2-2.3-2.2-3.1c-0.8-0.5-1.7-0.8-2.6-0.7
		c-1.7,0-3.1,0.5-4.3,1.7c-1.7,2.1-2.5,4.6-2.6,7.2H170z"/>
	<path class="st0" d="M194.1,76.7c0,0.8,0.2,1.4,0.6,1.9c0.3,0.4,0.6,0.6,1.1,0.7c0.7,0.2,1.3,0.3,2,0.2h1.5v1.2h-13.3v-1.2h1.5
		c0.9,0.1,1.7-0.1,2.5-0.4c0.8-0.6,1.1-1.3,1.1-2.3V51.5c0.1-0.6-0.2-1.3-0.6-1.9c-0.3-0.2-0.6-0.5-1-0.6c-0.6-0.1-1.4-0.2-2-0.2
		h-1.4v-1.3h25.5l0.7,10.6l-1.2,0.2c-0.2-1.2-0.5-2.4-0.8-3.6c-0.5-2.3-1.7-3.9-3.7-5c-2.2-0.6-4.4-1-6.8-0.9h-2
		c-0.9,0-1.7,0.1-2.6,0.4c-0.4,0.2-0.7,0.5-0.9,1c-0.2,0.5-0.3,1-0.2,1.4v11.4h3.9c0.9,0,1.9,0,2.9-0.3c0.8-0.2,1.4-0.7,1.8-1.5
		c0.5-0.9,0.8-2,0.8-3c0-0.5,0-1.1,0.1-1.6h1.2v14.1h-1.2c-0.1-1.1-0.1-2.2-0.4-3.3c-0.2-0.9-0.6-1.6-1.1-2.3
		c-1.3-0.6-2.6-0.9-4-0.8h-3.9L194.1,76.7L194.1,76.7z"/>
	<path class="st0" d="M219.8,76.1c0.5,1.2,1.2,2.1,2.3,2.8c1.1,0.7,2.4,1,3.8,0.9c2,0.1,3.8-0.6,5.2-2.2c0.8-1.1,1.4-2.3,2-3.6
		l1.2,0.6c-0.6,1.6-1.4,2.9-2.6,4.2c-1.7,1.6-3.8,2.4-6.1,2.3c-3.2,0.2-5.6-0.9-7.5-3.3c-1-1.2-1.6-2.5-1.9-4
		c-0.3-1.3-0.4-2.5-0.4-3.8c-0.1-3.6,0.9-6.7,3.3-9.3c1.7-1.6,3.8-2.3,6.2-2.3c3.3-0.1,5.7,1.3,7.1,4.2c1,2.3,1.5,4.7,1.6,7.2h-15.6
		C218.5,72,218.9,74.1,219.8,76.1z M231.1,68.5c-0.1-1.7-0.4-3.4-0.9-5.1c-0.4-1.3-1.2-2.3-2.2-3.1c-0.8-0.5-1.7-0.8-2.6-0.7
		c-1.7,0-3.1,0.5-4.3,1.7c-1.7,2.1-2.5,4.6-2.6,7.2H231.1z"/>
	<path class="st0" d="M246.9,59.9c1.2-1,2.7-1.6,4.3-1.7c1.3,0,2.5,0.4,3.5,1.2c1.3,1.1,2,2.5,2.1,4.2c1-1.4,2-2.6,3.3-3.7
		c1.3-1.1,2.9-1.6,4.6-1.8c1.3,0,2.4,0.4,3.4,1.2c1,0.9,1.7,2,2,3.3c0.2,1.2,0.4,2.3,0.4,3.4V77c0,0.6,0.1,1,0.4,1.4
		c0.3,0.4,0.6,0.6,1,0.8c0.5,0.1,0.9,0.2,1.3,0.2h1v1.2h-10.1v-1.2h1c0.6,0.1,1.3-0.1,2-0.5c0.2-0.2,0.5-0.4,0.5-0.7
		c0.1-0.4,0.2-0.7,0.2-1.1V65.7c0.1-1.7-0.3-3.3-1.3-4.7c-0.8-0.6-1.6-1-2.7-1c-1,0-1.9,0.3-2.7,0.8c-1.7,1.3-3.2,2.8-4.3,4.6
		c0,0.3,0,0.5,0,0.8V77c0,0.6,0.1,1,0.5,1.4c0.3,0.4,0.7,0.6,1,0.8c0.5,0.1,0.9,0.2,1.4,0.2h0.9v1.2h-10.1v-1.2h1
		c0.7,0.1,1.4-0.1,2-0.5c0.2-0.2,0.4-0.4,0.5-0.7c0.1-0.4,0.2-0.7,0.2-1.1V65.7c0.1-1.7-0.3-3.3-1.3-4.7c-0.7-0.6-1.6-1-2.6-1
		c-1,0-1.9,0.3-2.7,0.8c-1.7,1.2-3,2.8-4,4.6V77c0,0.6,0.1,1,0.4,1.4c0.3,0.4,0.6,0.6,1,0.8c0.4,0.1,0.9,0.2,1.4,0.2h1v1.2h-10.1
		v-1.2h1c0.7,0.1,1.4-0.1,2-0.5c0.2-0.2,0.4-0.4,0.5-0.7c0.1-0.4,0.2-0.7,0.2-1.1V62.8c0-0.7-0.2-1.4-0.6-1.9
		c-0.6-0.3-1.3-0.5-1.9-0.4h-1.2v-1.3l6.2-1v5.2C244.7,62.2,245.7,60.9,246.9,59.9z"/>
	<path class="st0" d="M283.1,59.9c1.2-1,2.7-1.6,4.3-1.7c1.3,0,2.5,0.4,3.5,1.2c1.3,1.1,2,2.5,2.1,4.2c1-1.4,2-2.6,3.3-3.7
		c1.3-1.1,2.9-1.6,4.6-1.8c1.3,0,2.4,0.4,3.4,1.2c1,0.9,1.7,2,2,3.3c0.2,1.2,0.4,2.3,0.4,3.4V77c0,0.6,0.1,1,0.4,1.4
		c0.3,0.4,0.6,0.6,1,0.8c0.5,0.1,0.9,0.2,1.3,0.2h1v1.2h-10.1v-1.2h1c0.6,0.1,1.3-0.1,2-0.5c0.2-0.2,0.5-0.4,0.5-0.7
		c0.1-0.4,0.2-0.7,0.2-1.1V65.7c0.1-1.7-0.3-3.3-1.3-4.7c-0.8-0.6-1.6-1-2.7-1c-1,0-1.9,0.3-2.7,0.8c-1.7,1.3-3.2,2.8-4.3,4.6
		c0,0.3,0,0.5,0,0.8V77c0,0.6,0.1,1,0.5,1.4c0.3,0.4,0.7,0.6,1,0.8c0.5,0.1,0.9,0.2,1.4,0.2h0.9v1.2h-10v-1.2h1
		c0.7,0.1,1.4-0.1,2-0.5c0.2-0.2,0.4-0.4,0.5-0.7c0.1-0.4,0.2-0.7,0.2-1.1V65.7c0.1-1.7-0.3-3.3-1.3-4.7c-0.7-0.6-1.6-1-2.6-1
		c-1,0-1.9,0.3-2.7,0.8c-1.7,1.2-3,2.8-4,4.6V77c0,0.6,0.1,1,0.5,1.4c0.3,0.4,0.6,0.6,1,0.8c0.5,0.1,0.9,0.2,1.4,0.2h1v1.2h-10.1
		v-1.2h1c0.7,0.1,1.4-0.1,2-0.5c0.2-0.2,0.4-0.4,0.5-0.7c0.1-0.4,0.2-0.7,0.2-1.1V62.8c0-0.7-0.2-1.4-0.6-1.9
		c-0.6-0.3-1.3-0.5-2-0.4h-1.2v-1.3l6.2-1v5.2C280.9,62.2,281.9,60.9,283.1,59.9z"/>
	<path class="st0" d="M314.8,76.1c0.5,1.2,1.2,2.1,2.3,2.8c1.1,0.7,2.4,1,3.8,0.9c2,0.1,3.8-0.6,5.2-2.2c0.8-1.1,1.5-2.3,2-3.6
		l1.2,0.6c-0.6,1.6-1.5,2.9-2.6,4.2c-1.7,1.6-3.8,2.4-6.1,2.3c-3.2,0.2-5.6-0.9-7.5-3.3c-1-1.2-1.6-2.5-2-4
		c-0.3-1.3-0.4-2.5-0.4-3.8c-0.1-3.6,1-6.7,3.3-9.3c1.7-1.6,3.8-2.3,6.2-2.3c3.3-0.1,5.7,1.3,7.1,4.2c1,2.3,1.5,4.7,1.6,7.2h-15.6
		C313.5,72,313.9,74.1,314.8,76.1z M326.2,68.5c-0.1-1.7-0.5-3.4-1-5.1c-0.4-1.3-1.2-2.3-2.2-3.1c-0.8-0.5-1.7-0.8-2.6-0.7
		c-1.7,0-3.1,0.5-4.3,1.7c-1.7,2.1-2.5,4.6-2.6,7.2H326.2z"/>
</g>
<g>
	<path class="st0" d="M35.8,47.5l0-0.8l0.4,0l-0.1-5.3l-0.4,0l0-0.8l2.2,0c0.3,0,0.6,0,0.9,0.1s0.5,0.2,0.7,0.3
		c0.2,0.1,0.3,0.3,0.4,0.5c0.1,0.2,0.2,0.5,0.2,0.8c0,0.4-0.1,0.8-0.3,1.1S39.4,43.8,39,44c0.2,0,0.4,0.1,0.5,0.2
		c0.2,0.1,0.3,0.2,0.5,0.3c0.1,0.1,0.2,0.3,0.3,0.5c0.1,0.2,0.1,0.4,0.1,0.6c0,0.3,0,0.5-0.2,0.8s-0.3,0.4-0.5,0.5
		c-0.2,0.2-0.4,0.3-0.7,0.3s-0.5,0.1-0.8,0.1L35.8,47.5z M37,43.6l1.1,0c0.4,0,0.7-0.1,0.9-0.3s0.3-0.5,0.3-0.9c0-0.2,0-0.4-0.1-0.5
		s-0.2-0.2-0.3-0.3c-0.1-0.1-0.2-0.1-0.4-0.2c-0.2,0-0.3,0-0.5,0l-1,0L37,43.6z M37,46.7l1.1,0c0.2,0,0.4,0,0.6-0.1
		c0.2,0,0.3-0.1,0.5-0.2c0.1-0.1,0.2-0.2,0.3-0.3s0.1-0.3,0.1-0.5c0-0.2,0-0.4-0.2-0.5s-0.2-0.3-0.4-0.4c-0.2-0.1-0.3-0.2-0.5-0.2
		c-0.2,0-0.4-0.1-0.6-0.1l-1,0L37,46.7z"/>
	<path class="st0" d="M43.2,48.1c-0.2,0-0.5,0-0.7,0c-0.3-0.1-0.5-0.2-0.7-0.3c-0.2-0.2-0.4-0.3-0.5-0.6c-0.1-0.2-0.2-0.5-0.2-0.7
		s0-0.5,0-0.8c0.1-0.2,0.2-0.5,0.3-0.7c0.2-0.2,0.3-0.4,0.6-0.5c0.2-0.1,0.5-0.2,0.7-0.2c0.3,0,0.5,0,0.8,0c0.2,0,0.4,0.1,0.5,0.3
		s0.3,0.3,0.4,0.5c0.1,0.2,0.2,0.4,0.2,0.6s0.1,0.5,0.1,0.7c-0.5,0-0.9,0.1-1.4,0.1s-0.9,0.1-1.4,0.1c0.1,0.2,0.2,0.3,0.3,0.4
		c0.1,0.1,0.3,0.2,0.5,0.2c0.2,0,0.3,0,0.4,0c0.1,0,0.3-0.1,0.4-0.1l0.3,0.7C43.6,48,43.4,48,43.2,48.1z M42.8,45.1
		c-0.2,0-0.3,0.1-0.4,0.2c-0.1,0.1-0.2,0.2-0.3,0.2c-0.1,0.1-0.1,0.2-0.2,0.3c0.3,0,0.7-0.1,1-0.1c0.3,0,0.7-0.1,1-0.1
		c-0.1-0.1-0.1-0.2-0.2-0.3c-0.1-0.1-0.2-0.2-0.3-0.2C43.1,45,42.9,45,42.8,45.1z"/>
	<path class="st0" d="M44.5,48.6l0.3-0.7l0.7,0.3L48,43l-0.6-0.3l0.3-0.7l1.3,0.6l-2.9,5.9l0.5,0.3l-0.3,0.7L44.5,48.6z"/>
	<path class="st0" d="M46.7,49.7l0.4-0.6l0.6,0.4l3.3-4.7l-0.5-0.4l0.4-0.6l1.2,0.8L48.5,50l0.5,0.3L48.5,51L46.7,49.7z"/>
	<path class="st0" d="M50.7,53c-0.2-0.1-0.4-0.2-0.6-0.4c-0.2-0.2-0.3-0.4-0.4-0.7c-0.1-0.2-0.1-0.5-0.1-0.7c0-0.2,0.1-0.5,0.2-0.7
		s0.2-0.4,0.4-0.6c0.2-0.2,0.4-0.3,0.6-0.4c0.2-0.1,0.5-0.1,0.7-0.1c0.2,0,0.5,0.1,0.7,0.2s0.5,0.2,0.6,0.5c0.1,0.2,0.2,0.3,0.3,0.5
		s0.1,0.4,0.1,0.6c0,0.2,0,0.4-0.1,0.6s-0.2,0.4-0.3,0.6c-0.4-0.2-0.8-0.4-1.3-0.6c-0.4-0.2-0.8-0.4-1.3-0.6c0,0.2,0,0.3,0,0.5
		c0,0.2,0.2,0.3,0.3,0.5c0.1,0.1,0.2,0.2,0.3,0.2c0.1,0,0.3,0.1,0.4,0.1l-0.1,0.8C51.1,53.1,50.9,53.1,50.7,53z M51.9,50.2
		c-0.2-0.1-0.3-0.1-0.5-0.1c-0.1,0-0.2,0-0.4,0.1c-0.1,0-0.2,0.1-0.3,0.2c0.3,0.2,0.6,0.3,0.9,0.4c0.3,0.1,0.6,0.3,0.9,0.4
		c0-0.1,0-0.3,0-0.4s-0.1-0.2-0.2-0.3C52.2,50.3,52,50.2,51.9,50.2z"/>
	<path class="st0" d="M52.9,56.2l0.7-0.2l0.2,0.5l5-1.7l-0.2-0.5l0.7-0.2l1.5,4.5l-1.4,0.5l-0.2-0.7L60,58l-0.8-2.5L57,56.2l1,2.9
		l-0.7,0.2l-1-2.9l-2.2,0.7l0.3,1l-0.7,0.2L52.9,56.2z"/>
	<path class="st0" d="M54.6,63.5c-0.1-0.2-0.2-0.4-0.2-0.7c0-0.3,0-0.5,0.1-0.8c0.1-0.2,0.2-0.5,0.4-0.6c0.2-0.2,0.4-0.3,0.6-0.5
		c0.2-0.1,0.5-0.2,0.7-0.2c0.3,0,0.5,0,0.8,0.1s0.5,0.2,0.6,0.4c0.2,0.2,0.3,0.4,0.4,0.6c0.1,0.2,0.2,0.5,0.2,0.8
		c0,0.2,0,0.4-0.1,0.6s-0.2,0.4-0.3,0.5c-0.1,0.2-0.3,0.3-0.5,0.4c-0.2,0.1-0.4,0.2-0.6,0.3c-0.2-0.4-0.4-0.9-0.6-1.3
		s-0.4-0.9-0.6-1.3c-0.1,0.1-0.2,0.2-0.3,0.4s-0.1,0.3-0.1,0.5c0,0.2,0,0.3,0.1,0.4c0.1,0.1,0.1,0.2,0.2,0.3L55,64
		C54.9,63.9,54.8,63.7,54.6,63.5z M57.4,62.1c-0.1-0.1-0.2-0.3-0.3-0.4c-0.1-0.1-0.2-0.1-0.3-0.2c-0.1,0-0.2-0.1-0.4-0.1
		c0.1,0.3,0.3,0.6,0.4,0.9c0.1,0.3,0.3,0.6,0.4,0.9c0.1-0.1,0.2-0.2,0.2-0.3c0.1-0.1,0.1-0.2,0.1-0.4C57.5,62.5,57.5,62.3,57.4,62.1
		z"/>
	<path class="st0" d="M55,64.7l0.7,0.2l-0.2,0.7l2,0.6l0.2-0.6l0.7,0.2l-0.4,1.3l-0.1,0c-0.2,0-0.3-0.1-0.4-0.1
		c-0.1,0-0.3-0.1-0.4-0.1c0.3,0.2,0.4,0.5,0.5,0.8s0.1,0.7,0,1c-0.1,0.3-0.3,0.6-0.5,0.8c-0.2,0.2-0.5,0.2-0.8,0.2
		c0.2,0.2,0.4,0.5,0.5,0.8s0.1,0.6,0,1c-0.1,0.4-0.3,0.6-0.6,0.8c-0.3,0.2-0.5,0.2-0.9,0.1l-1.8-0.6l-0.2,0.6l-0.7-0.2l0.6-2.1
		l0.7,0.2L53.9,71l1.5,0.4c0.2,0,0.3,0,0.5-0.1s0.3-0.2,0.4-0.5c0-0.2,0.1-0.3,0.1-0.5c0-0.2,0-0.3-0.1-0.5
		c-0.1-0.1-0.2-0.3-0.3-0.4c-0.1-0.1-0.3-0.2-0.4-0.2l-1-0.3l-0.2,0.6l-0.7-0.2l0.6-2.1l0.7,0.2l-0.2,0.7l1.5,0.4
		c0.2,0,0.3,0,0.5-0.1s0.3-0.2,0.4-0.5c0-0.2,0.1-0.3,0.1-0.5c0-0.2,0-0.3-0.1-0.5c-0.1-0.1-0.2-0.3-0.3-0.4
		c-0.1-0.1-0.3-0.2-0.4-0.2l-1-0.3L55.1,67l-0.7-0.2L55,64.7z"/>
	<path class="st0" d="M52.7,72.2l0.6,0.5l-0.5,0.5l1.5,1.5l0.5-0.5l0.6,0.5l-0.9,1l-0.1-0.1c-0.1-0.1-0.2-0.2-0.3-0.3
		c-0.1-0.1-0.2-0.2-0.3-0.3c0.1,0.3,0.2,0.6,0.1,1s-0.2,0.6-0.5,0.9c-0.2,0.3-0.5,0.4-0.8,0.4c-0.3,0-0.5,0-0.8-0.2
		c0.1,0.3,0.1,0.6,0.1,0.9c-0.1,0.3-0.2,0.6-0.5,0.9c-0.3,0.3-0.5,0.4-0.8,0.4c-0.3,0-0.6-0.1-0.8-0.3l-1.4-1.3l-0.4,0.4l-0.6-0.5
		l1.5-1.6l0.6,0.5l-0.5,0.5l1.1,1.1c0.1,0.1,0.3,0.2,0.5,0.2s0.3-0.1,0.5-0.2c0.1-0.1,0.2-0.3,0.3-0.4s0.1-0.3,0.1-0.5
		c0-0.2,0-0.3-0.1-0.5s-0.1-0.3-0.3-0.4l-0.7-0.7l-0.4,0.4l-0.6-0.5l1.5-1.6l0.6,0.5l-0.5,0.5l1.1,1.1c0.1,0.1,0.3,0.2,0.5,0.2
		s0.3-0.1,0.5-0.2c0.1-0.1,0.2-0.3,0.3-0.4s0.1-0.3,0.1-0.5s0-0.3-0.1-0.5s-0.1-0.3-0.3-0.4l-0.7-0.7l-0.4,0.4l-0.6-0.5L52.7,72.2z"
		/>
	<path class="st0" d="M44.7,78.7c0.2-0.2,0.3-0.3,0.6-0.4c0.2-0.1,0.5-0.2,0.8-0.2c0.3,0,0.5,0,0.7,0.1c0.2,0.1,0.5,0.2,0.6,0.4
		c0.2,0.2,0.3,0.4,0.5,0.6c0.1,0.2,0.2,0.5,0.2,0.7c0,0.2,0,0.5-0.1,0.7c-0.1,0.2-0.2,0.4-0.4,0.6c-0.2,0.2-0.4,0.3-0.6,0.5
		c-0.2,0.1-0.4,0.1-0.6,0.1c-0.2,0-0.4,0-0.6-0.1c-0.2-0.1-0.4-0.2-0.6-0.3c-0.2-0.1-0.4-0.3-0.5-0.5c0.3-0.3,0.7-0.7,1-1
		c0.3-0.3,0.7-0.7,1-1c-0.2-0.1-0.3-0.1-0.5-0.1c-0.2,0-0.4,0-0.5,0.1c-0.1,0.1-0.2,0.2-0.3,0.2S45,79.5,45,79.6l-0.7-0.3
		C44.4,79.1,44.5,78.9,44.7,78.7z M46.9,80.8c0.1-0.1,0.2-0.2,0.2-0.4c0-0.1,0-0.2,0-0.4c0-0.1,0-0.2-0.1-0.4
		c-0.2,0.2-0.5,0.5-0.7,0.7c-0.2,0.2-0.5,0.5-0.7,0.7c0.1,0.1,0.3,0.1,0.4,0.1s0.3,0,0.4-0.1C46.7,81,46.8,80.9,46.9,80.8z"/>
	<path class="st0" d="M40.9,79.9l0,0.8l-0.4,0l0.1,5.3l0.4,0l0,0.8l-2.2,0c-0.3,0-0.6,0-0.9-0.1c-0.3-0.1-0.5-0.2-0.7-0.3
		c-0.2-0.1-0.3-0.3-0.4-0.5c-0.1-0.2-0.2-0.5-0.2-0.8c0-0.4,0.1-0.8,0.3-1.1s0.5-0.5,0.9-0.6c-0.2,0-0.4-0.1-0.5-0.2
		c-0.2-0.1-0.3-0.2-0.5-0.3c-0.1-0.1-0.2-0.3-0.3-0.5c-0.1-0.2-0.1-0.4-0.1-0.6c0-0.3,0-0.6,0.2-0.8c0.1-0.2,0.3-0.4,0.5-0.6
		c0.2-0.2,0.4-0.3,0.7-0.3s0.5-0.1,0.8-0.1L40.9,79.9z M39.7,80.7l-1.1,0c-0.2,0-0.4,0-0.6,0.1c-0.2,0.1-0.3,0.1-0.5,0.2
		c-0.1,0.1-0.2,0.2-0.3,0.3s-0.1,0.3-0.1,0.5c0,0.2,0,0.4,0.2,0.5c0.1,0.2,0.2,0.3,0.4,0.4c0.2,0.1,0.3,0.2,0.5,0.2
		c0.2,0,0.4,0.1,0.6,0.1l1,0L39.7,80.7z M39.8,83.7l-1.1,0c-0.4,0-0.7,0.1-0.9,0.3c-0.2,0.2-0.3,0.5-0.3,0.9c0,0.2,0,0.4,0.1,0.5
		s0.2,0.2,0.3,0.3c0.1,0.1,0.2,0.1,0.4,0.2s0.3,0.1,0.5,0.1l1,0L39.8,83.7z"/>
	<path class="st0" d="M33.6,79.3c0.2,0,0.5,0,0.7,0c0.3,0.1,0.5,0.2,0.7,0.3c0.2,0.2,0.4,0.3,0.5,0.6c0.1,0.2,0.2,0.4,0.2,0.7
		c0,0.2,0,0.5,0,0.8c-0.1,0.2-0.2,0.5-0.3,0.7c-0.2,0.2-0.3,0.4-0.5,0.5c-0.2,0.1-0.5,0.2-0.7,0.2c-0.3,0-0.5,0-0.8,0
		c-0.2-0.1-0.4-0.1-0.5-0.3s-0.3-0.3-0.4-0.4c-0.1-0.2-0.2-0.4-0.2-0.6c-0.1-0.2-0.1-0.4-0.1-0.7c0.5-0.1,0.9-0.1,1.4-0.2
		c0.5-0.1,0.9-0.1,1.4-0.2c-0.1-0.2-0.2-0.3-0.3-0.4c-0.1-0.1-0.3-0.2-0.5-0.2c-0.2,0-0.3,0-0.4,0c-0.1,0-0.3,0.1-0.4,0.2l-0.3-0.7
		C33.1,79.4,33.3,79.3,33.6,79.3z M34,82.3c0.2,0,0.3-0.1,0.4-0.2c0.1-0.1,0.2-0.2,0.3-0.3c0.1-0.1,0.1-0.2,0.2-0.3
		c-0.3,0-0.7,0.1-1,0.1c-0.3,0-0.6,0.1-1,0.1c0.1,0.1,0.1,0.3,0.2,0.4c0.1,0.1,0.2,0.2,0.3,0.2C33.7,82.3,33.8,82.3,34,82.3z"/>
	<path class="st0" d="M32.3,78.8l-0.3,0.7l-0.7-0.3l-2.5,5.2l0.6,0.3L29,85.4l-1.3-0.6l2.8-5.9L30,78.6l0.3-0.7L32.3,78.8z"/>
	<path class="st0" d="M30,77.7l-0.4,0.6L29,77.9l-3.3,4.8l0.5,0.4l-0.4,0.6l-1.2-0.8l3.7-5.4l-0.5-0.3l0.4-0.6L30,77.7z"/>
	<path class="st0" d="M26,74.4c0.2,0.1,0.4,0.2,0.6,0.4c0.2,0.2,0.3,0.4,0.4,0.7c0.1,0.2,0.1,0.5,0.1,0.7c0,0.2,0,0.5-0.2,0.7
		c-0.1,0.2-0.2,0.4-0.4,0.6c-0.2,0.2-0.4,0.3-0.6,0.4c-0.2,0.1-0.5,0.1-0.7,0.1c-0.2,0-0.5-0.1-0.7-0.2c-0.2-0.1-0.5-0.2-0.6-0.4
		c-0.1-0.2-0.2-0.3-0.3-0.5s-0.1-0.4-0.1-0.6c0-0.2,0-0.4,0.1-0.6c0.1-0.2,0.2-0.4,0.3-0.6c0.4,0.2,0.9,0.4,1.3,0.6s0.9,0.4,1.3,0.6
		c0-0.2,0-0.3,0-0.5c0-0.2-0.1-0.3-0.3-0.5c-0.1-0.1-0.2-0.2-0.3-0.2c-0.1-0.1-0.3-0.1-0.4-0.1l0.1-0.8C25.6,74.3,25.8,74.4,26,74.4
		z M24.8,77.3c0.1,0.1,0.3,0.1,0.5,0.1c0.1,0,0.2,0,0.4-0.1s0.2-0.1,0.3-0.2c-0.3-0.1-0.6-0.3-0.9-0.4c-0.3-0.1-0.6-0.3-0.9-0.4
		c0,0.1,0,0.3,0,0.4c0,0.1,0.1,0.2,0.2,0.3C24.6,77.1,24.7,77.2,24.8,77.3z"/>
	<path class="st0" d="M23.8,71.3L23,71.6L22.9,71l-5,1.8l0.2,0.5l-0.7,0.3l-1.6-4.5l1.4-0.5l0.3,0.7l-0.7,0.2l0.9,2.5l2.1-0.7
		l-1-2.8l0.7-0.3l1,2.8l2.2-0.8l-0.3-0.9l0.7-0.3L23.8,71.3z"/>
	<path class="st0" d="M22,64c0.1,0.2,0.2,0.4,0.2,0.7c0,0.3,0,0.5-0.1,0.8c-0.1,0.2-0.2,0.5-0.4,0.7c-0.2,0.2-0.4,0.3-0.6,0.4
		c-0.2,0.1-0.5,0.2-0.7,0.2c-0.3,0-0.5,0-0.8-0.1c-0.2-0.1-0.5-0.2-0.6-0.4c-0.2-0.2-0.3-0.4-0.5-0.6c-0.1-0.2-0.2-0.5-0.2-0.8
		c0-0.2,0-0.4,0.1-0.6c0.1-0.2,0.2-0.4,0.3-0.5c0.1-0.2,0.3-0.3,0.5-0.4s0.4-0.2,0.6-0.3c0.2,0.4,0.4,0.9,0.6,1.3s0.4,0.9,0.6,1.3
		c0.1-0.1,0.2-0.2,0.3-0.4c0.1-0.2,0.1-0.3,0.1-0.6c0-0.2,0-0.3-0.1-0.4c-0.1-0.1-0.1-0.2-0.3-0.3l0.5-0.5
		C21.8,63.6,21.9,63.8,22,64z M19.2,65.3c0.1,0.1,0.2,0.3,0.3,0.4c0.1,0.1,0.2,0.1,0.3,0.2c0.1,0,0.2,0.1,0.4,0.1
		c-0.1-0.3-0.3-0.6-0.4-0.9c-0.1-0.3-0.3-0.6-0.4-0.9c-0.1,0.1-0.2,0.2-0.2,0.3c-0.1,0.1-0.1,0.2-0.1,0.4
		C19.1,65,19.2,65.2,19.2,65.3z"/>
	<path class="st0" d="M21.6,62.8l-0.7-0.2l0.2-0.7l-2-0.6l-0.2,0.6l-0.7-0.2l0.4-1.3l0.1,0c0.1,0,0.3,0.1,0.4,0.1
		c0.1,0,0.3,0.1,0.4,0.1c-0.3-0.2-0.4-0.5-0.5-0.8s-0.1-0.7,0-1c0.1-0.3,0.3-0.6,0.5-0.8s0.5-0.2,0.8-0.2c-0.2-0.2-0.4-0.5-0.5-0.8
		c-0.1-0.3-0.1-0.6,0-1c0.1-0.4,0.3-0.6,0.5-0.8c0.3-0.2,0.5-0.2,0.9-0.1l1.8,0.5l0.2-0.6l0.7,0.2l-0.6,2.1l-0.7-0.2l0.2-0.7
		L21.2,56c-0.2,0-0.3,0-0.5,0s-0.3,0.2-0.4,0.5c0,0.2-0.1,0.3,0,0.5c0,0.2,0,0.3,0.1,0.5c0.1,0.1,0.2,0.3,0.3,0.4s0.3,0.2,0.4,0.2
		l1,0.3l0.2-0.6l0.7,0.2l-0.6,2.1l-0.7-0.2l0.2-0.7l-1.5-0.4c-0.2,0-0.3,0-0.5,0s-0.3,0.2-0.4,0.5c0,0.2-0.1,0.3,0,0.5
		c0,0.2,0,0.3,0.1,0.5c0.1,0.1,0.2,0.3,0.3,0.4s0.3,0.2,0.4,0.2l1,0.3l0.2-0.6l0.7,0.2L21.6,62.8z"/>
	<path class="st0" d="M23.8,55.3l-0.6-0.5l0.5-0.5l-1.5-1.5l-0.4,0.5l-0.6-0.5l0.9-1l0.1,0.1c0.1,0.1,0.2,0.2,0.3,0.3
		s0.2,0.2,0.3,0.3c-0.1-0.3-0.2-0.6-0.1-1c0.1-0.3,0.2-0.6,0.5-0.9c0.2-0.3,0.5-0.4,0.8-0.4c0.3,0,0.5,0,0.8,0.2
		c-0.1-0.3-0.1-0.6-0.1-0.9c0.1-0.3,0.2-0.6,0.5-0.9c0.3-0.3,0.5-0.4,0.9-0.5c0.3,0,0.6,0.1,0.8,0.3l1.4,1.3l0.4-0.5l0.6,0.5
		l-1.5,1.6l-0.6-0.5l0.5-0.5l-1.1-1c-0.1-0.1-0.3-0.2-0.5-0.2c-0.2,0-0.4,0.1-0.5,0.2c-0.1,0.1-0.2,0.3-0.3,0.4
		c-0.1,0.2-0.1,0.3-0.1,0.5s0,0.3,0.1,0.5s0.1,0.3,0.3,0.4l0.7,0.7l0.4-0.5l0.6,0.5l-1.5,1.6l-0.6-0.5l0.5-0.5l-1.1-1
		C24.5,51,24.3,51,24.2,51c-0.2,0-0.4,0.1-0.5,0.2c-0.1,0.1-0.2,0.3-0.3,0.4c-0.1,0.2-0.1,0.3-0.1,0.5c0,0.2,0,0.3,0.1,0.5
		c0,0.2,0.1,0.3,0.3,0.4l0.7,0.7l0.4-0.5l0.6,0.5L23.8,55.3z"/>
	<path class="st0" d="M31.9,48.7c-0.2,0.2-0.3,0.3-0.5,0.4c-0.2,0.1-0.5,0.2-0.8,0.2c-0.3,0-0.5,0-0.7-0.1c-0.2-0.1-0.5-0.2-0.6-0.4
		c-0.2-0.2-0.3-0.4-0.5-0.6c-0.1-0.2-0.2-0.5-0.2-0.7c0-0.3,0-0.5,0.1-0.7c0.1-0.2,0.2-0.4,0.4-0.6c0.2-0.2,0.4-0.3,0.6-0.5
		c0.2-0.1,0.4-0.1,0.6-0.2c0.2,0,0.4,0,0.6,0.1c0.2,0.1,0.4,0.2,0.6,0.3s0.4,0.3,0.5,0.5c-0.3,0.3-0.7,0.7-1,1c-0.3,0.3-0.7,0.7-1,1
		c0.2,0.1,0.3,0.1,0.5,0.1s0.4,0,0.5-0.1c0.1-0.1,0.2-0.2,0.3-0.2c0.1-0.1,0.2-0.2,0.2-0.4l0.7,0.3C32.1,48.3,32,48.5,31.9,48.7z
		 M29.6,46.7c-0.1,0.1-0.2,0.2-0.2,0.4c0,0.1,0,0.2,0,0.4c0,0.1,0,0.2,0.1,0.4c0.2-0.2,0.5-0.5,0.7-0.7c0.2-0.2,0.5-0.5,0.7-0.7
		c-0.1-0.1-0.3-0.1-0.4-0.1c-0.1,0-0.3,0-0.4,0.1C29.8,46.4,29.7,46.5,29.6,46.7z"/>
</g>
<g>
	<path class="st0" d="M48.8,54.4L49,55c-0.8,0.1-1.5,0.3-2.1,0.6l-0.3,0.1c0.6,0.3,1.1,0.7,1.4,1.2s0.5,1,0.5,1.4s0,0.8-0.1,1.1
		c-0.1,0.3-0.2,0.5-0.3,0.8c-0.1,0.2-0.2,0.5-0.4,0.7c-0.2,0.2-0.3,0.5-0.5,0.6c-0.2,0.2-0.3,0.4-0.5,0.6c-0.2,0.2-0.4,0.4-0.5,0.5
		c-0.2,0.2-0.5,0.4-0.8,0.7c1.2,0.5,2.1,1.1,2.7,1.7c0.6,0.7,0.9,1.5,0.9,2.5s-0.3,1.9-0.9,2.9s-1.4,1.7-2.4,2.2
		c-1,0.6-2,0.8-3.1,0.8c-1.2,0-2.1-0.3-2.8-1c-0.3-0.4-0.5-0.8-0.5-1.3s0.2-0.9,0.5-1.2s0.7-0.4,1.1-0.4s0.8,0.1,1,0.3
		s0.4,0.5,0.4,0.7s0,0.5-0.2,0.7c-0.1,0.2-0.2,0.3-0.3,0.4c-0.1,0.1-0.3,0.2-0.4,0.2c-0.2,0.1-0.4,0.2-0.5,0.2
		c0,0.4,0.5,0.6,1.3,0.7c0.2,0,0.3,0,0.4,0c1.1,0,2.1-0.4,2.9-1.3s1.2-1.9,1.2-3c0-0.6-0.1-1.1-0.4-1.6s-0.6-0.9-0.9-1.2
		c-0.4-0.3-0.7-0.6-1.1-0.8c-0.4-0.2-0.7-0.4-0.9-0.5c-0.2-0.1-0.4-0.2-0.4-0.2s0.1-0.1,0.4-0.3s0.5-0.4,0.9-0.7
		c0.4-0.3,0.7-0.6,1.1-0.9c0.3-0.3,0.7-0.8,0.9-1.3s0.4-1,0.4-1.5s-0.1-1-0.4-1.6s-0.7-1-1.2-1.2c-1.5,1-2.7,2.4-3.3,4.4
		c-0.3,0.8-0.5,1.6-0.7,2.3c-0.4,1.7-0.6,2.9-0.8,3.6c-0.2,0.7-0.5,1.4-1,2.2c-0.5,0.8-1.1,1.5-1.8,2.2c-0.7,0.6-1.6,1.1-2.6,1.5
		c-1,0.4-2.2,0.6-3.4,0.6c-1.7,0-3-0.4-4.1-1.1c-0.8-0.6-1.2-1.4-1.2-2.5c0-0.7,0.2-1.4,0.5-2c0.4-0.6,0.8-1,1.4-1.4
		c1.2-0.7,2.4-1,3.8-1c0-1.3,0.3-2.6,0.9-3.9S34,59,35,58.1c1-0.9,2.2-1.6,3.6-2.2s2.8-0.8,4.3-0.8c0.5,0,1.3,0.1,2.5,0.2
		C46.9,54.8,48,54.5,48.8,54.4z M32.9,69l-0.8,0.2c-0.1-0.4-0.3-0.8-0.4-1.4c-0.1-0.6-0.2-1-0.2-1.1c-0.6,0-1.2,0.1-1.9,0.3
		c-0.6,0.2-1.1,0.4-1.5,0.6s-0.7,0.5-1,0.9s-0.4,0.8-0.4,1.3c0,0.5,0.1,0.9,0.4,1.3c0.3,0.4,0.6,0.7,1,0.9c0.8,0.4,1.7,0.6,2.6,0.6
		s1.7-0.1,2.3-0.3s1.2-0.4,1.6-0.8s0.8-0.7,1.2-1.2c0.4-0.5,0.7-1,0.9-1.5c0.2-0.5,0.5-1.1,0.7-1.7s0.4-1.2,0.5-1.8
		c0.4-1.5,0.8-2.7,1.2-3.7c0.4-1,1-2,1.8-3c0.8-1,1.7-1.8,2.7-2.4c-0.5-0.1-1.1-0.2-1.9-0.2c-0.8,0-1.6,0.2-2.6,0.5
		c-1,0.3-1.9,0.8-2.7,1.4c-0.8,0.6-1.6,1.3-2.2,2s-1.2,1.6-1.6,2.5c-0.4,0.9-0.6,1.8-0.6,2.8c1.8,0.4,3.1,1,3.9,2l-0.5,0.5
		c-0.8-0.6-1.5-0.9-1.9-1c-0.4-0.1-0.7-0.2-0.8-0.2c-0.4-0.1-0.6-0.1-0.8-0.1c0.1,0.6,0.3,1.3,0.5,2L32.9,69z"/>
</g>
<g class="st1">
	<path class="st0" d="M58.2,29.2h4c0.9,0,1.2,0,1.8-0.1v1.2c-0.5-0.1-0.9-0.1-1.7-0.1h-8.9c-0.8,0-1.2,0-1.7,0.1v-1.2
		c0.5,0.1,0.9,0.1,1.7,0.1h3.8v-6.6h-2.6c-0.8,0-1.2,0-1.7,0.1v-1.2c0.5,0.1,0.9,0.1,1.8,0.1h6.6c0.9,0,1.2,0,1.8-0.1v1.2
		c-0.5-0.1-0.9-0.1-1.7-0.1h-2.9V29.2z"/>
	<path class="st0" d="M77.6,20.4c-0.3,0.2-0.3,0.2-0.7,0.6c-0.9,1-2.2,2.1-3.5,3v6.4c0,0.9,0,1.2,0.1,1.6h-1.3
		c0.1-0.4,0.1-0.7,0.1-1.6v-5.7c-1.9,1.2-3,1.7-5.8,2.6c-0.2-0.5-0.3-0.6-0.6-1c2.8-0.7,5.4-2,7.8-3.9c1.4-1.1,2.4-2.1,2.9-2.8
		L77.6,20.4z"/>
	<path class="st0" d="M81.6,23.7c1.4,0.6,2.5,1.1,3.8,2l-0.6,1c-1.1-0.8-2.5-1.5-3.8-2.1L81.6,23.7z M81.2,30.5c1,0,2.5-0.4,4-0.9
		c1.9-0.7,3.3-1.8,4.5-3.3c0.8-1.1,1.3-2,1.8-3.4c0.4,0.4,0.5,0.5,0.9,0.8c-1.3,3.1-3.1,5.1-5.8,6.5c-1.1,0.5-2.6,1-3.8,1.3
		c-0.2,0-0.5,0.1-0.8,0.2c-0.3,0.1-0.4,0.1-0.6,0.2L81.2,30.5z M82.7,20.1c1.5,0.6,2.4,1.1,3.7,1.9l-0.6,1c-1-0.8-2.6-1.6-3.7-2
		L82.7,20.1z M90.8,19.6c0.6,0.7,1,1.2,1.5,2.1l-0.8,0.4c-0.5-0.9-0.8-1.4-1.5-2.1L90.8,19.6z M92.3,18.8c0.6,0.7,1,1.2,1.5,2.1
		L93,21.3c-0.5-0.9-0.8-1.4-1.5-2.1L92.3,18.8z"/>
	<path class="st0" d="M96,30.3c1.2,0,3-0.5,4.4-1.2c2.9-1.3,4.9-3.5,6.1-6.7c0.3,0.5,0.5,0.6,0.9,0.9c-1.2,2.6-2.6,4.4-4.6,5.7
		c-1.5,1-3.1,1.7-5.6,2.2c-0.4,0.1-0.5,0.1-0.9,0.2L96,30.3z M96.9,21c1.6,1,2.5,1.8,3.6,2.8l-0.8,0.9c-1.1-1.2-2.3-2.1-3.6-2.9
		L96.9,21z"/>
	<path class="st0" d="M115.7,19.8c-0.1,0.2-0.1,0.2-0.3,0.6c-0.4,0.8-0.5,1.1-0.7,1.3c0.1,0,0.3,0,0.5,0l3.8-0.1
		c0.5,0,0.6,0,0.8-0.1l0.8,0.8c-0.1,0.2-0.1,0.2-0.3,0.7c-0.6,2-1.7,4-2.9,5.5c-1.4,1.6-3,2.8-5.2,3.7c-0.2-0.4-0.4-0.6-0.8-0.9
		c2.3-0.9,3.9-2.1,5.3-3.8c1.2-1.4,2.1-3.1,2.6-5l-5.1,0.1c-0.9,1.5-2.1,2.8-3.6,3.9c-0.3-0.4-0.4-0.5-0.8-0.8
		c1.6-1,2.7-2.3,3.8-4.1c0.6-1,0.9-1.7,0.9-2.2L115.7,19.8z M120.6,19.7c0.6,0.8,0.9,1.2,1.4,2.1l-0.8,0.4c-0.4-0.8-0.8-1.4-1.4-2.2
		L120.6,19.7z M122,19c0.6,0.8,0.9,1.2,1.4,2.1l-0.8,0.4c-0.4-0.8-0.8-1.4-1.4-2.2L122,19z"/>
	<path class="st0" d="M132.8,23.3c-0.2,2.2-0.3,3.1-0.8,4.2c-0.5,1.2-1.4,2.3-2.6,3.1c-0.6,0.5-1.2,0.8-2.3,1.3
		c-0.2-0.5-0.3-0.6-0.7-1c1.3-0.5,2.2-1.1,3.2-2c1.4-1.3,2-3,2.1-5.8h-4.1c-0.9,1.4-1.5,2.2-2.6,3.2c-0.3-0.3-0.4-0.5-0.9-0.7
		c1.4-1.1,2.4-2.4,3.2-4.1c0.4-1,0.6-1.5,0.8-2.1l1.1,0.4c-0.1,0.3-0.2,0.3-0.4,0.8c-0.3,0.8-0.6,1.3-0.8,1.6c0.2,0,0.2,0,7,0
		c0.9,0,1.2,0,1.8-0.1v1.1c-0.4,0-0.4,0-1.9,0H132.8z"/>
	<path class="st0" d="M145.4,23.1c0,0.3,0,0.3-0.1,1c0,2.5-0.5,4-1.5,5.3c-0.9,1.2-2,1.9-3.8,2.6c-0.2-0.5-0.3-0.6-0.7-1
		c1.2-0.4,2-0.7,2.7-1.4c1.6-1.3,2.2-2.8,2.2-5.7c0-0.4,0-0.5-0.1-0.8H145.4z M151.3,21.2c-0.2,0.2-0.2,0.2-0.4,0.6
		c-1,2-2.4,3.4-4.4,4.3c-0.2-0.4-0.3-0.5-0.7-0.9c1-0.4,1.7-0.8,2.4-1.4c0.7-0.6,1.2-1.4,1.7-2.2h-8.5c-0.8,0-1.2,0-1.8,0.1v-1.2
		c0.5,0.1,0.9,0.1,1.8,0.1h8.1c1,0,1,0,1.3-0.1L151.3,21.2z"/>
	<path class="st0" d="M155.5,21.2c-0.6,0-1.1,0-1.5,0.1v-1c0.4,0.1,0.9,0.1,1.5,0.1h4.4v-0.1c0-0.6,0-0.9-0.1-1.2h1.1
		c-0.1,0.4-0.1,0.7-0.1,1.2v0.1h4.8c0.7,0,1,0,1.5-0.1v1c-0.4-0.1-0.9-0.1-1.5-0.1h-4.8v1.1h3.6c0.6,0,0.9,0,1.3-0.1
		c0,0.4-0.1,0.6-0.1,1.1v2.8c0,0.4,0,0.7,0.1,1c-0.4,0-0.8-0.1-1.3-0.1h-0.4v1.1h1.6c0.7,0,1.1,0,1.5-0.1v1
		c-0.4-0.1-0.9-0.1-1.5-0.1h-1.6v2.4c0,0.8-0.4,1.1-1.6,1.1c-0.4,0-0.6,0-1.5,0c0-0.4-0.1-0.5-0.3-0.9c0.5,0.1,1.2,0.1,1.8,0.1
		c0.5,0,0.6-0.1,0.6-0.4V29h-7.6c-0.6,0-1,0-1.5,0.1v-1c0.4,0.1,0.9,0.1,1.5,0.1h7.6v-1.1h-6.4c-0.5,0-0.8,0-1.3,0.1
		c0-0.4,0.1-0.6,0.1-1v-2.8c0-0.4,0-0.7-0.1-1.1c0.4,0,0.7,0.1,1.3,0.1h3.3v-1.1H155.5z M156.3,23.1v1.2h3.5v-1.2H156.3z M156.3,25
		v1.4h3.5V25H156.3z M159,31.9c-0.8-0.9-1.4-1.4-2.2-2l0.7-0.6c1,0.7,1.5,1.1,2.2,1.9L159,31.9z M160.7,24.3h3.9v-1.2h-3.9V24.3z
		 M160.7,26.4h3.9V25h-3.9V26.4z"/>
	<path class="st0" d="M171.5,30.9c0,0.8,0,1.3,0.1,1.7h-1.1c0.1-0.4,0.1-0.9,0.1-1.7v-9.7c0-0.7,0-1.2-0.1-1.7
		c0.4,0,0.8,0.1,1.6,0.1h2.2c0.8,0,1.1,0,1.5-0.1c0,0.4,0,0.8,0,1.4v2.4c0,0.6,0,1,0,1.4c-0.3,0-0.9,0-1.5,0h-2.7V30.9z M171.5,21.7
		h3.3v-1.4h-3.3V21.7z M171.5,23.9h3.3v-1.4h-3.3V23.9z M182.4,31.1c0,1.1-0.3,1.3-1.6,1.3c-0.5,0-1.1,0-1.7-0.1
		c-0.1-0.4-0.1-0.6-0.3-1c0.7,0.1,1.4,0.2,1.8,0.2c0.7,0,0.9-0.1,0.9-0.4v-6.4h-2.9c-0.6,0-1.2,0-1.5,0c0-0.4,0-0.8,0-1.4V21
		c0-0.5,0-1,0-1.4c0.4,0,0.8,0.1,1.5,0.1h2.4c0.7,0,1.2,0,1.6-0.1c-0.1,0.5-0.1,1-0.1,1.7V31.1z M178,21.7h3.5v-1.4H178V21.7z
		 M178,23.9h3.5v-1.4H178V23.9z"/>
	<path class="st0" d="M191.3,27.6c-0.9,2-1.8,2.9-2.8,2.9c-1.4,0-2.5-1.6-2.5-3.7c0-1.5,0.6-3,1.6-4.1c1.2-1.3,2.8-2,4.8-2
		c1.7,0,3.2,0.5,4.1,1.5c0.9,0.9,1.5,2.2,1.5,3.7c0,2.3-1.3,4.2-3.4,5.2c-0.7,0.3-1.2,0.5-2.3,0.7c-0.1-0.5-0.2-0.6-0.5-1
		c1.1-0.2,1.8-0.4,2.5-0.7c1.6-0.8,2.7-2.4,2.7-4.2c0-1.7-0.9-3.1-2.4-3.8c-0.6-0.2-1-0.3-1.7-0.4C192.5,23.7,192,26,191.3,27.6z
		 M189.4,22.3c-1.5,0.9-2.4,2.6-2.4,4.5c0,1.4,0.6,2.5,1.4,2.5c0.6,0,1.2-0.7,1.9-2.2c0.6-1.4,1.2-3.6,1.4-5.5
		C190.8,21.7,190.1,21.9,189.4,22.3z"/>
	<path class="st0" d="M204.1,21.3c0-0.8,0-0.9-0.1-1.4h1.2c-0.1,0.4-0.1,0.7-0.1,1.4v2.2l6.1-0.8c0.6-0.1,0.6-0.1,0.9-0.2l0.7,0.6
		c-0.1,0.2-0.1,0.2-0.2,0.4c-0.4,0.9-0.8,1.4-1.1,1.9c-0.6,0.8-1.5,1.6-2.5,2.3c-0.3-0.4-0.5-0.5-0.9-0.7c1.6-1,2.7-2.1,3.4-3.5
		c-0.1,0-0.2,0-0.3,0.1c-0.1,0-0.1,0-0.2,0c-2.1,0.3-4,0.6-5.7,0.8V28c0,1.4,0.1,1.7,0.4,2c0.3,0.3,0.9,0.4,2.2,0.4
		c1.6,0,3.2-0.2,4.4-0.5l0.1,1.2c-0.4,0-0.5,0-0.9,0.1c-1.5,0.2-2.5,0.3-3.6,0.3c-1.7,0-2.6-0.2-3.1-0.7c-0.4-0.5-0.6-0.9-0.6-2.5
		v-3.6l-1.8,0.3c-1,0.1-1,0.1-1.5,0.3l-0.1-1.1c0.1,0,0.2,0,0.2,0c0.3,0,0.8,0,1.3-0.1l1.9-0.3V21.3z"/>
	<path class="st0" d="M218.3,20.1c0,0.3-0.1,0.7-0.1,1.3l0,9c1.7-0.3,3.1-0.8,4.3-1.5c1.5-0.9,2.5-2,3.4-3.6
		c0.4,0.5,0.5,0.6,0.8,0.9c-2.1,3.1-4.3,4.5-8.3,5.2c-0.6,0.1-0.7,0.1-0.9,0.2l-0.6-0.8c0.1-0.3,0.1-0.4,0.1-1l0-8.6v-0.6
		c0-0.3,0-0.5,0-0.8H218.3z"/>
	<path class="st0" d="M235.5,19.7c-0.1,0.2-0.1,0.2-0.3,0.6c-0.4,0.8-0.5,1.1-0.7,1.3c0.2,0,0.2,0,4.5-0.1c0.5,0,0.6,0,0.8-0.1
		l0.6,0.6c-0.1,0.2-0.1,0.2-0.3,0.7c-0.6,2.1-1.7,4.2-3,5.6c-1.4,1.6-3,2.8-5.2,3.8c-0.2-0.4-0.4-0.6-0.8-0.9
		c2.3-0.9,3.9-2.1,5.3-3.8c1.2-1.4,2.1-3.2,2.6-5l-5.1,0.1c-0.9,1.5-2.1,2.8-3.6,3.9c-0.3-0.4-0.4-0.5-0.8-0.8
		c1.6-1,2.7-2.3,3.8-4.1c0.6-1,0.9-1.7,0.9-2.2L235.5,19.7z"/>
	<path class="st0" d="M245.4,32c0.1-0.4,0.1-0.8,0.1-1.6v-9.3c0-0.8,0-1.2-0.1-1.5h1.3c-0.1,0.4-0.1,0.7-0.1,1.6V24
		c2.3,0.8,4,1.7,6.7,3.2l-0.6,1.1c-1.4-1-3.5-2.1-5.6-3c-0.2-0.1-0.3-0.1-0.5-0.3l0,0c0,0.3,0.1,0.5,0.1,0.9v4.5
		c0,0.8,0,1.2,0.1,1.6H245.4z"/>
	<path class="st0" d="M256.9,23.6c1.4,0.6,2.5,1.1,3.8,2l-0.6,1c-1.1-0.8-2.5-1.5-3.8-2.1L256.9,23.6z M256.5,30.5
		c1,0,2.5-0.4,4-0.9c1.9-0.7,3.3-1.8,4.5-3.3c0.8-1.1,1.3-2,1.8-3.4c0.4,0.4,0.5,0.5,0.9,0.8c-1.3,3.1-3.1,5.2-5.8,6.5
		c-1,0.5-2.6,1-3.8,1.3c-0.2,0-0.5,0.1-0.8,0.2c-0.3,0.1-0.4,0.1-0.6,0.2L256.5,30.5z M258.1,20c1.5,0.6,2.4,1.1,3.7,1.9l-0.6,1
		c-1-0.8-2.6-1.6-3.7-2L258.1,20z"/>
	<path class="st0" d="M272.8,31.6c-0.8,0-0.9,0-1.3,0.1v-1c0.4,0.1,0.7,0.1,1.3,0.1h5.8v-2.8h-5.3c-0.8,0-0.9,0-1.3,0.1v-1
		c0.4,0.1,0.7,0.1,1.3,0.1h5.3v-2.6H273c-0.8,0-0.9,0-1.3,0.1v-1c0.4,0.1,0.7,0.1,1.3,0.1h5.6c0.5,0,0.8,0,1,0c0,0.4,0,0.6,0,1.2
		v6.8c0,0.5,0,0.7,0.1,0.9h-1v-0.8H272.8z"/>
	<path class="st0" d="M285.5,23.3c0.6,1,0.9,1.7,1.5,3.3l-1,0.3c-0.4-1.3-0.8-2.3-1.4-3.4L285.5,23.3z M293.9,23.2
		c-0.1,0.2-0.1,0.2-0.3,1.2c-0.2,1-0.8,2.4-1.3,3.4c-1.1,1.8-2.6,3.2-5,4.3c-0.2-0.4-0.3-0.5-0.7-0.8c2.3-1,3.7-2.2,4.8-3.9
		c0.6-0.9,1-2.1,1.3-3.2c0.1-0.5,0.2-0.8,0.2-1v-0.1c0,0,0,0,0-0.1L293.9,23.2z M288.5,22.7c0.8,1.4,1.1,2,1.5,3.2l-1,0.3
		c-0.3-1.1-0.7-2.2-1.4-3.3L288.5,22.7z"/>
	<path class="st0" d="M305.8,21.1c0-0.1,0-0.2,0-0.3c0-0.8,0.7-1.5,1.5-1.5c0.9,0,1.5,0.7,1.5,1.5c0,0.9-0.7,1.5-1.5,1.5
		c-0.1,0-0.2,0-0.3,0c-0.5,2-1.2,3.6-2.1,4.8c-0.9,1.3-2.2,2.5-3.7,3.4c-0.9,0.5-1.5,0.9-2.8,1.3c-0.2-0.5-0.3-0.6-0.7-1
		c1.3-0.4,2.2-0.8,3.4-1.6c2.5-1.7,3.9-3.8,4.7-7.2h-7.6c-0.8,0-1.2,0-1.7,0.1V21c0.6,0.1,0.9,0.1,1.7,0.1h7.4H305.8z M306.4,20.8
		c0,0.5,0.4,0.9,0.9,0.9c0.5,0,0.9-0.4,0.9-0.9c0-0.5-0.4-0.9-0.9-0.9S306.4,20.3,306.4,20.8z"/>
</g>
<g class="st1">
	<path class="st0" d="M138.5,96.7c0.2-0.1,0.3-0.2,0.4-0.3c0.4-0.3,1.5-1.7,2.1-2.5c0.7-0.9,1-1.1,1.5-1.1c0.5,0,0.7,0.1,1.5,1.1
		c1.3,1.5,2.8,2.9,4.1,3.9c0.6,0.5,0.8,0.6,1,0.7l-0.5,1c-0.3-0.2-0.3-0.3-1.1-0.9c-1.1-0.9-2.4-2.2-4.1-4c-0.8-0.9-0.8-0.9-1.1-0.9
		s-0.3,0.1-0.8,0.8c-0.5,0.6-1.4,1.8-2.2,2.7c-0.1,0.1-0.2,0.2-0.3,0.4L138.5,96.7z M146.1,92.2c0.5,0.6,0.8,1,1.3,1.7l-0.6,0.3
		c-0.4-0.7-0.7-1.1-1.2-1.7L146.1,92.2z M147.3,91.6c0.5,0.6,0.8,0.9,1.3,1.7l-0.6,0.3c-0.4-0.7-0.7-1.1-1.2-1.7L147.3,91.6z"/>
	<path class="st0" d="M154.4,91.4c0,0.3,0,0.3-0.1,1c-0.1,3.2-0.2,4.1-0.6,5.3c-0.4,1.1-1,1.9-2.1,3c-0.2-0.3-0.4-0.4-0.7-0.6
		c1-0.8,1.6-1.6,2-2.8c0.4-1,0.5-2.6,0.5-5.1c0-0.4,0-0.6,0-0.9L154.4,91.4z M157.4,91.3c-0.1,0.3-0.1,0.5-0.1,1.1l-0.1,7.2
		c1-0.4,1.6-0.8,2.2-1.4c0.7-0.7,1.1-1.5,1.4-2.4c0.3,0.3,0.3,0.4,0.7,0.7c-0.6,1.4-1.4,2.4-2.4,3.1c-0.5,0.4-1,0.6-1.7,0.9
		c-0.2,0.1-0.2,0.1-0.4,0.1c-0.1,0.1-0.2,0.1-0.3,0.1l-0.5-0.6c0.1-0.2,0.1-0.3,0.1-0.8l0.1-7c0-0.8,0-0.8,0-1.1L157.4,91.3z"/>
	<path class="st0" d="M200.3,92.5c-0.1,0.1-0.1,0.1-0.3,0.7c-0.6,2.3-1.5,3.9-3,5.2c-1.1,1-2.1,1.6-3.8,2.3
		c-0.2-0.4-0.3-0.5-0.6-0.8c1.1-0.3,1.8-0.6,2.7-1.3c2-1.3,3.1-3,3.8-5.7h-6.1c-0.6,0-0.9,0-1.3,0.1v-1c0.5,0.1,0.7,0.1,1.4,0.1h5.9
		c0.5,0,0.6,0,0.8-0.1L200.3,92.5z"/>
	<path class="st0" d="M207.4,95.2c0,0.2,0,0.3-0.1,0.8c-0.1,1.6-0.3,2.5-1,3.3c-0.5,0.7-1.3,1.2-2.5,1.7c-0.2-0.3-0.2-0.4-0.5-0.7
		c2.4-0.9,3.1-1.9,3.1-4.7c0-0.1,0-0.2,0-0.4H207.4z M203.6,93.5c0.3,0.1,0.7,0.1,1.3,0.1l5.2,0c0.4,0,0.4,0,0.6-0.1l0.4,0.5
		c-0.1,0.1-0.1,0.1-0.3,0.6c-0.3,0.6-0.9,1.3-1.5,1.8c-0.4,0.3-0.7,0.5-1.2,0.7c-0.2-0.3-0.3-0.4-0.5-0.6c1.2-0.4,1.9-1.1,2.5-2.1
		c0-0.1,0-0.1,0.1-0.1c0,0,0,0,0-0.1l0,0c-0.1,0-0.2,0-0.3,0l-5,0c-0.9,0-0.9,0-1.3,0V93.5z"/>
	<path class="st0" d="M217.9,91.2c-0.1,0.2-0.2,0.5-0.3,0.9c-0.9,2.9-1.7,5.2-2.5,7c1.6-0.1,4.4-0.5,5.8-0.8
		c-0.6-1.3-1.3-2.3-1.8-3.1l0.7-0.4c1,1.3,2.2,3.5,3,5.4l-0.8,0.5c-0.3-0.7-0.4-1.1-0.7-1.6c-2,0.4-4.4,0.7-7.4,1
		c-0.5,0-0.8,0.1-1,0.1l-0.1-1c0.3,0,0.3,0,0.3,0c0.1,0,0.7,0,1-0.1c0.7-1.7,1.2-3,1.8-4.8c0.6-1.8,0.9-2.8,0.9-3.5L217.9,91.2z"/>
</g>
</svg>
