<?xml version="1.0" encoding="utf-8"?>
<!-- Generator: Adobe Illustrator 23.1.1, SVG Export Plug-In . SVG Version: 6.00 Build 0)  -->
<svg version="1.1" id="_x32_" xmlns="http://www.w3.org/2000/svg" xmlns:xlink="http://www.w3.org/1999/xlink" x="0px" y="0px"
	 viewBox="0 0 512 512" style="enable-background:new 0 0 512 512;" xml:space="preserve">
<style type="text/css">
	.st0{fill:#4B4B4B;}
	.st1{fill:#FFFFFF;}
</style>
<g>
	<path class="st0" d="M507.3,126.7l-369-29.2l-5.6-31.9C127.6,36.6,104.4,14,75.2,9.7L9.7,0l-5,33.7l65.5,9.7
		c14.7,2.2,26.3,13.5,28.9,28.1l53,300.1c5,28.2,29.4,48.7,58,48.7h229.7l6.8-34.1H210.1c-12,0-22.4-8.7-24.5-20.5l-7.4-42h283.6
		L507.3,126.7z"/>
	<path class="st0" d="M223.1,438.7c-20.3,0-36.7,16.4-36.7,36.7c0,20.3,16.4,36.7,36.7,36.7c20.3,0,36.7-16.4,36.7-36.7
		C259.8,455.1,243.4,438.7,223.1,438.7z"/>
	<path class="st0" d="M386.1,438.7c-20.3,0-36.7,16.4-36.7,36.7c0,20.3,16.4,36.7,36.7,36.7c20.3,0,36.7-16.4,36.7-36.7
		C422.7,455.1,406.3,438.7,386.1,438.7z"/>
</g>
<g>
	<path class="st1" d="M-376,59.4l-111.8-8.9l-1.7-9.7c-1.6-8.8-8.6-15.6-17.4-17l-19.9-2.9l-1.5,10.2l19.9,2.9
		c4.4,0.7,8,4.1,8.8,8.5l16,90.9c1.5,8.5,8.9,14.8,17.6,14.8h69.6l2.1-10.3h-71.7c-3.7,0-6.8-2.6-7.4-6.2l-2.2-12.7h85.9L-376,59.4z
		"/>
	<path class="st1" d="M-462.1,153.9c-6.1,0-11.1,5-11.1,11.1c0,6.1,5,11.1,11.1,11.1c6.1,0,11.1-5,11.1-11.1
		C-451,158.9-456,153.9-462.1,153.9z"/>
	<path class="st1" d="M-412.7,153.9c-6.1,0-11.1,5-11.1,11.1c0,6.1,5,11.1,11.1,11.1c6.1,0,11.1-5,11.1-11.1
		C-401.6,158.9-406.6,153.9-412.7,153.9z"/>
</g>
</svg>
