<?xml version="1.0" encoding="utf-8"?>
<!-- Generator: Adobe Illustrator 24.3.0, SVG Export Plug-In . SVG Version: 6.00 Build 0)  -->
<svg version="1.1" xmlns="http://www.w3.org/2000/svg" xmlns:xlink="http://www.w3.org/1999/xlink" x="0px" y="0px"
	 viewBox="0 0 800 800" style="enable-background:new 0 0 800 800;" xml:space="preserve">
<g id="レイヤー_1">
	<g>
		<path d="M311.94,138.52l-1.46-6.14l5.43-1.29l-14.15-59.4l-5.43,1.29l-1.46-6.14l23.04-5.49c3.28-0.78,6.34-1.15,9.2-1.11
			c2.86,0.04,5.42,0.55,7.67,1.53c2.25,0.98,4.18,2.49,5.78,4.52c1.6,2.04,2.78,4.62,3.53,7.76c1.01,4.23,0.87,8.2-0.41,11.9
			c-1.28,3.7-3.87,6.62-7.76,8.77c2.08-0.06,4.13,0.17,6.17,0.69c2.04,0.53,3.92,1.38,5.64,2.55c1.72,1.18,3.23,2.66,4.52,4.44
			c1.29,1.79,2.23,3.91,2.81,6.36c0.73,3.07,0.74,5.9,0.02,8.49c-0.72,2.59-1.96,4.89-3.72,6.89c-1.74,2.08-3.89,3.83-6.43,5.27
			c-2.54,1.44-5.25,2.5-8.12,3.18L311.94,138.52z M314.5,96.57l12.19-2.9c4.44-1.06,7.65-3.17,9.63-6.35
			c1.98-3.18,2.49-6.82,1.51-10.91c-0.55-2.32-1.42-4.21-2.59-5.66c-1.18-1.45-2.56-2.49-4.15-3.12c-1.53-0.65-3.21-0.98-5.06-1.01
			c-1.85-0.03-3.83,0.21-5.94,0.71l-11.88,2.83L314.5,96.57z M322.36,129.54l12.39-2.95c2.32-0.55,4.42-1.34,6.31-2.37
			c1.88-1.03,3.47-2.31,4.77-3.84c1.24-1.45,2.11-3.08,2.62-4.9c0.5-1.81,0.5-3.82-0.02-6c-0.57-2.39-1.57-4.33-3.01-5.83
			c-1.44-1.5-3.14-2.59-5.11-3.27c-1.97-0.68-4.13-1.04-6.47-1.05c-2.35-0.02-4.69,0.25-7.01,0.8l-10.85,2.59L322.36,129.54z"/>
		<path d="M393.11,124.7c-2.23,1.1-4.7,1.73-7.44,1.88c-2.87,0.15-5.62-0.24-8.23-1.19c-2.62-0.95-4.89-2.28-6.8-4.01
			c-1.99-1.79-3.6-3.9-4.82-6.33c-1.22-2.43-1.91-5.08-2.06-7.95c-0.15-2.8,0.25-5.5,1.2-8.08c0.95-2.58,2.32-4.87,4.11-6.86
			c1.72-1.92,3.84-3.49,6.34-4.72c2.5-1.22,5.19-1.91,8.06-2.07c2.17-0.12,4.26,0.19,6.27,0.93c2.01,0.74,3.85,1.76,5.54,3.08
			c1.62,1.39,3.06,3.03,4.32,4.93c1.26,1.9,2.27,3.99,3.02,6.27c-5.01,2.24-9.99,4.45-14.93,6.65c-4.94,2.2-9.92,4.42-14.93,6.65
			c1.3,2.04,3.04,3.63,5.21,4.78c2.17,1.15,4.62,1.65,7.36,1.5c1.89-0.1,3.62-0.53,5.2-1.28c1.58-0.75,2.92-1.79,4.05-3.12
			l4.35,4.51C397.27,122.13,395.33,123.6,393.11,124.7z M377.62,93.54c-1.81,0.98-3.34,2.27-4.59,3.88
			c-0.98,1.39-1.7,2.97-2.17,4.76c-0.47,1.78-0.54,3.65-0.23,5.6c3.91-1.75,7.81-3.51,11.68-5.27c3.88-1.75,7.77-3.47,11.69-5.16
			c-1.22-1.76-2.7-3.14-4.44-4.14c-1.74-1-3.66-1.44-5.76-1.32C381.5,92.01,379.43,92.56,377.62,93.54z"/>
		<path d="M410.41,125.39l0.5-6.3l7.87,0.62l5.2-66.12l-7.14-0.56l0.5-6.3l13.75,1.08l-5.7,72.42l7.35,0.58l-0.5,6.3L410.41,125.39z
			"/>
		<path d="M438.78,127.96l1.14-6.21l7.76,1.43l12.02-65.23l-7.04-1.3l1.15-6.21l13.56,2.5l-13.17,71.44l7.25,1.34l-1.15,6.21
			L438.78,127.96z"/>
		<path d="M493.49,141.1c-2.47,0.22-5.01-0.09-7.61-0.95c-2.74-0.9-5.15-2.26-7.24-4.1c-2.1-1.83-3.72-3.9-4.89-6.2
			c-1.21-2.39-1.94-4.94-2.2-7.65c-0.26-2.71,0.06-5.43,0.96-8.16c0.88-2.67,2.22-5.03,4.05-7.09c1.82-2.06,3.93-3.7,6.32-4.91
			c2.3-1.16,4.84-1.86,7.61-2.1c2.77-0.23,5.53,0.1,8.26,0.99c2.07,0.68,3.9,1.72,5.51,3.14c1.6,1.41,2.95,3.04,4.05,4.88
			c1.01,1.88,1.75,3.94,2.24,6.17c0.49,2.23,0.67,4.54,0.55,6.94c-5.48,0.27-10.92,0.53-16.33,0.79c-5.4,0.26-10.85,0.52-16.33,0.79
			c0.48,2.37,1.52,4.49,3.12,6.34s3.71,3.21,6.31,4.07c1.8,0.59,3.57,0.82,5.31,0.69c1.74-0.13,3.38-0.61,4.9-1.44l2.42,5.78
			C498.31,140.21,495.96,140.88,493.49,141.1z M490.36,106.44c-2.04,0.25-3.94,0.91-5.68,1.96c-1.42,0.94-2.67,2.15-3.75,3.65
			c-1.08,1.49-1.83,3.21-2.24,5.14c4.28-0.22,8.55-0.44,12.8-0.67c4.25-0.23,8.5-0.42,12.76-0.57c-0.5-2.08-1.38-3.9-2.64-5.46
			c-1.26-1.56-2.89-2.67-4.89-3.32C494.52,106.42,492.39,106.19,490.36,106.44z"/>
		<path d="M536.47,160.6l3.64-5.16l5.51,3.88l35.19-49.9l-5.51-3.88l3.64-5.16l41.9,29.55l-9.34,13.25l-5.16-3.64l5.7-8.09
			l-25.81-18.2l-15.59,22.11l27.62,19.48l-3.64,5.16l-27.62-19.48l-15.96,22.63l8.17,5.76l-3.64,5.16L536.47,160.6z"/>
		<path d="M602.3,213.85c-2.3-0.95-4.4-2.4-6.31-4.36c-2.01-2.06-3.52-4.39-4.53-6.98c-1.01-2.59-1.5-5.18-1.47-7.76
			c0.03-2.68,0.56-5.28,1.58-7.8c1.02-2.52,2.56-4.78,4.62-6.79c2.01-1.96,4.3-3.43,6.87-4.42c2.57-0.99,5.19-1.46,7.87-1.43
			c2.58,0.03,5.15,0.58,7.72,1.66c2.57,1.07,4.86,2.64,6.87,4.7c1.52,1.56,2.66,3.33,3.43,5.33c0.77,1.99,1.21,4.06,1.34,6.2
			c0.02,2.13-0.26,4.3-0.86,6.5c-0.6,2.2-1.51,4.34-2.72,6.41c-4.99-2.29-9.93-4.58-14.84-6.85c-4.91-2.27-9.86-4.55-14.84-6.85
			c-0.67,2.32-0.73,4.68-0.16,7.07s1.8,4.56,3.72,6.52c1.32,1.36,2.79,2.38,4.39,3.07c1.6,0.69,3.27,1.02,5.01,0.99l-0.52,6.25
			C606.99,215.29,604.6,214.8,602.3,213.85z M615.54,181.67c-1.93-0.72-3.91-1.02-5.95-0.89c-1.69,0.18-3.36,0.68-5.01,1.5
			c-1.65,0.82-3.1,2-4.36,3.52c3.9,1.79,7.79,3.56,11.66,5.32c3.87,1.76,7.74,3.56,11.58,5.39c0.52-2.08,0.58-4.1,0.19-6.07
			c-0.4-1.96-1.33-3.7-2.8-5.21C619.24,183.57,617.46,182.38,615.54,181.67z"/>
		<path d="M614.41,224.35l5.43-3.23l4.15,6.97l23.07-13.73l-3.71-6.24l5.43-3.23l6.62,11.13l-1.94,1.27
			c-1.23,0.81-2.33,1.55-3.29,2.2c-0.96,0.65-2.04,1.42-3.23,2.29c3.65-0.46,7.08,0.09,10.29,1.65c3.21,1.56,5.87,4.04,7.98,7.44
			c1.9,3.2,2.62,6.3,2.17,9.31c-0.46,3.01-1.95,5.47-4.49,7.39c3.53-0.38,6.85,0.23,9.98,1.84c3.12,1.61,5.7,4.06,7.74,7.34
			c2.05,3.44,2.72,6.71,2.04,9.81c-0.69,3.1-2.5,5.61-5.44,7.53l-19.09,11.36l3.71,6.24l-5.43,3.23l-11.2-18.82l5.43-3.23l4.09,6.88
			l16.83-10.01c1.74-1.2,2.9-2.77,3.5-4.72c0.6-1.95,0.25-4.13-1.02-6.56c-1-1.69-2.25-3.13-3.74-4.33c-1.49-1.2-3.09-2.06-4.79-2.6
			c-1.75-0.6-3.52-0.84-5.34-0.74c-1.82,0.1-3.54,0.64-5.17,1.61l-12.21,7.27l3.66,6.15l-5.43,3.23l-11.2-18.82l5.43-3.23l4.15,6.97
			l16.83-10.01c1.74-1.2,2.9-2.77,3.5-4.72c0.6-1.95,0.24-4.16-1.08-6.65c-1.04-1.75-2.31-3.22-3.79-4.42
			c-1.49-1.2-3.09-2.06-4.79-2.6c-1.74-0.6-3.53-0.82-5.36-0.67c-1.83,0.15-3.59,0.73-5.28,1.73l-12.03,7.16l3.66,6.15l-5.43,3.23
			L614.41,224.35z"/>
		<path d="M657.72,298.17l6.16-1.41l1.81,7.9l26.17-5.99l-1.62-7.08l6.16-1.41l2.89,12.62l-2.23,0.62c-1.42,0.4-2.69,0.76-3.8,1.09
			c-1.11,0.33-2.37,0.72-3.78,1.19c3.61,0.68,6.71,2.26,9.29,4.73c2.58,2.47,4.35,5.65,5.31,9.53c0.83,3.63,0.57,6.8-0.79,9.52
			c-1.36,2.72-3.54,4.61-6.54,5.66c3.48,0.72,6.45,2.32,8.93,4.81c2.48,2.49,4.18,5.61,5.11,9.36c0.89,3.9,0.54,7.22-1.07,9.96
			c-1.6,2.74-4.1,4.57-7.49,5.5l-21.65,4.96l1.62,7.08l-6.16,1.41l-4.89-21.34l6.16-1.41l1.79,7.8l19.09-4.37
			c2.02-0.61,3.61-1.75,4.78-3.42c1.16-1.67,1.51-3.86,1.04-6.56c-0.44-1.92-1.18-3.67-2.23-5.27c-1.05-1.6-2.31-2.91-3.77-3.94
			c-1.48-1.1-3.1-1.88-4.86-2.34c-1.76-0.46-3.57-0.48-5.41-0.06l-13.85,3.17l1.6,6.98l-6.16,1.41l-4.89-21.34l6.16-1.41l1.81,7.9
			l19.09-4.37c2.02-0.61,3.61-1.75,4.78-3.42c1.17-1.67,1.5-3.89,1.01-6.66c-0.46-1.98-1.21-3.77-2.26-5.37
			c-1.05-1.6-2.31-2.91-3.77-3.94c-1.48-1.1-3.11-1.86-4.9-2.28c-1.79-0.42-3.64-0.41-5.56,0.03l-13.65,3.13l1.6,6.98l-6.16,1.41
			L657.72,298.17z"/>
		<path d="M674.29,411.17c-0.94-2.3-1.4-4.81-1.35-7.55c0.05-2.88,0.64-5.59,1.76-8.13c1.13-2.54,2.62-4.71,4.47-6.51
			c1.93-1.86,4.14-3.32,6.65-4.37c2.51-1.05,5.2-1.55,8.08-1.5c2.81,0.05,5.46,0.63,7.97,1.76c2.51,1.13,4.7,2.66,6.56,4.58
			c1.79,1.85,3.21,4.07,4.26,6.65c1.05,2.58,1.55,5.31,1.5,8.18c-0.04,2.17-0.49,4.24-1.36,6.19s-2.03,3.72-3.46,5.31
			c-1.5,1.52-3.24,2.84-5.22,3.97c-1.98,1.13-4.14,1.99-6.46,2.58c-1.88-5.16-3.75-10.27-5.59-15.36
			c-1.85-5.08-3.71-10.2-5.59-15.36c-2.12,1.16-3.83,2.78-5.13,4.87c-1.3,2.08-1.97,4.5-2.01,7.23c-0.03,1.89,0.27,3.65,0.91,5.28
			c0.64,1.62,1.58,3.04,2.83,4.26l-4.8,4.03C676.57,415.5,675.24,413.46,674.29,411.17z M706.46,397.9
			c-0.85-1.87-2.03-3.49-3.55-4.85c-1.32-1.07-2.85-1.91-4.59-2.5c-1.75-0.59-3.6-0.8-5.57-0.62c1.48,4.02,2.96,8.03,4.44,12.02
			c1.48,3.99,2.92,8,4.33,12.02c1.84-1.09,3.32-2.47,4.44-4.14c1.11-1.67,1.69-3.55,1.72-5.66
			C707.71,401.87,707.31,399.77,706.46,397.9z"/>
		<path d="M668.67,458.26l6.03,1.88l-1.66,5.33l58.28,18.2l1.66-5.33l6.03,1.88l-7.06,22.61c-1,3.22-2.25,6.04-3.75,8.48
			c-1.5,2.44-3.24,4.37-5.23,5.81c-1.99,1.44-4.27,2.32-6.84,2.66c-2.57,0.34-5.39,0.02-8.48-0.94c-4.15-1.3-7.49-3.44-10.01-6.44
			c-2.52-2.99-3.71-6.71-3.58-11.15c-1.01,1.82-2.26,3.47-3.75,4.95c-1.49,1.48-3.18,2.66-5.08,3.54c-1.89,0.88-3.94,1.42-6.13,1.61
			c-2.19,0.2-4.5-0.08-6.91-0.83c-3.01-0.94-5.45-2.38-7.31-4.32c-1.86-1.94-3.2-4.18-4.02-6.72c-0.89-2.56-1.31-5.3-1.24-8.22
			c0.07-2.92,0.54-5.79,1.42-8.6L668.67,458.26z M671.06,471.79l-3.8,12.16c-0.71,2.28-1.11,4.49-1.19,6.63
			c-0.08,2.14,0.21,4.16,0.87,6.06c0.61,1.81,1.57,3.39,2.87,4.76c1.3,1.36,3.02,2.38,5.17,3.05c2.34,0.73,4.53,0.86,6.55,0.39
			c2.02-0.47,3.83-1.38,5.43-2.72c1.59-1.34,3-3.02,4.22-5.03c1.22-2.01,2.18-4.15,2.89-6.43l3.33-10.65L671.06,471.79z
			 M703.41,481.9l-3.74,11.96c-1.36,4.35-1.18,8.2,0.54,11.53c1.72,3.33,4.59,5.62,8.61,6.88c2.28,0.71,4.34,0.93,6.19,0.67
			c1.85-0.27,3.45-0.93,4.81-1.97c1.33-0.98,2.49-2.26,3.46-3.83c0.97-1.57,1.78-3.4,2.43-5.47l3.64-11.66L703.41,481.9z"/>
		<path d="M639.03,535.04c0.19-2.48,0.92-4.93,2.2-7.35c1.34-2.55,3.09-4.7,5.24-6.46c2.16-1.76,4.46-3.03,6.93-3.79
			c2.56-0.8,5.19-1.1,7.91-0.9c2.71,0.19,5.34,0.96,7.89,2.3c2.48,1.31,4.59,3.03,6.32,5.17c1.73,2.14,2.99,4.49,3.79,7.05
			c0.77,2.46,1.03,5.08,0.81,7.86c-0.23,2.77-1.01,5.43-2.35,7.98c-1.01,1.92-2.35,3.56-4.01,4.91c-1.66,1.35-3.49,2.41-5.48,3.19
			c-2.02,0.68-4.17,1.08-6.45,1.19c-2.28,0.11-4.59-0.09-6.93-0.61c0.64-5.45,1.29-10.86,1.93-16.23
			c0.64-5.37,1.29-10.78,1.93-16.23c-2.42,0.08-4.68,0.75-6.78,2.03c-2.1,1.28-3.78,3.12-5.06,5.55c-0.88,1.68-1.4,3.38-1.56,5.12
			c-0.16,1.74,0.04,3.43,0.6,5.08l-6.1,1.43C639.11,539.94,638.84,537.52,639.03,535.04z M673.73,537.7
			c0.09-2.06-0.24-4.03-0.99-5.93c-0.69-1.55-1.68-2.99-2.97-4.3c-1.29-1.32-2.86-2.33-4.69-3.06c-0.5,4.26-0.98,8.5-1.46,12.73
			c-0.48,4.23-1,8.46-1.55,12.68c2.14-0.15,4.08-0.71,5.83-1.69c1.75-0.99,3.11-2.41,4.09-4.27
			C673.06,541.81,673.64,539.76,673.73,537.7z"/>
		<path d="M629.58,549.52l5.15,3.66l-4.58,6.44l54.06,38.43l4.15-5.83l5.15,3.66l-7.99,11.24l-59.21-42.09l-4.27,6.01l-5.15-3.66
			L629.58,549.52z"/>
		<path d="M612.78,572.56l4.74,4.17l-5.21,5.93l49.8,43.8l4.73-5.38l4.74,4.17l-9.11,10.36l-54.54-47.97l-4.87,5.53l-4.74-4.17
			L612.78,572.56z"/>
		<path d="M573.43,612.81c1.08-2.24,2.65-4.26,4.71-6.05c2.17-1.89,4.58-3.26,7.23-4.12c2.65-0.86,5.26-1.2,7.83-1.02
			c2.67,0.19,5.24,0.86,7.69,2.03c2.46,1.16,4.63,2.83,6.52,5c1.84,2.12,3.18,4.49,4.02,7.11c0.84,2.62,1.16,5.27,0.98,7.94
			c-0.18,2.57-0.88,5.11-2.1,7.62c-1.22,2.5-2.91,4.7-5.08,6.59c-1.64,1.43-3.48,2.47-5.51,3.12s-4.12,0.98-6.26,0.98
			c-2.13-0.1-4.28-0.51-6.44-1.23c-2.16-0.72-4.24-1.75-6.24-3.08c2.58-4.85,5.13-9.66,7.68-14.43c2.54-4.77,5.11-9.58,7.68-14.43
			c-2.28-0.81-4.63-0.99-7.05-0.56c-2.42,0.43-4.66,1.54-6.72,3.34c-1.43,1.24-2.53,2.65-3.31,4.21c-0.78,1.56-1.21,3.21-1.28,4.95
			l-6.21-0.88C571.73,617.41,572.35,615.05,573.43,612.81z M604.81,627.87c0.83-1.88,1.24-3.85,1.23-5.88
			c-0.08-1.7-0.49-3.39-1.21-5.08c-0.73-1.69-1.82-3.21-3.27-4.55c-2.01,3.79-4,7.57-5.97,11.34c-1.98,3.77-3.99,7.52-6.04,11.26
			c2.04,0.64,4.06,0.82,6.04,0.53c1.98-0.29,3.77-1.12,5.36-2.5C602.69,631.45,603.98,629.75,604.81,627.87z"/>
		<path d="M534.71,639.8l2.58,5.77l-6.15,2.75l24.91,55.75l6.15-2.75l2.58,5.77L517.96,728l-6.61-14.8l5.77-2.58l4.04,9.04
			l28.83-12.88l-11.04-24.7l-30.85,13.79l-2.58-5.77l30.85-13.79l-11.3-25.28l-9.13,4.08l-2.58-5.77L534.71,639.8z"/>
		<path d="M455.3,669.1c1.99-1.49,4.32-2.55,6.98-3.18c2.8-0.67,5.57-0.77,8.32-0.31c2.75,0.46,5.22,1.37,7.42,2.72
			c2.28,1.4,4.24,3.19,5.88,5.36c1.64,2.17,2.79,4.65,3.46,7.45c0.65,2.73,0.74,5.45,0.27,8.16c-0.47,2.71-1.41,5.21-2.81,7.49
			c-1.35,2.2-3.14,4.12-5.38,5.78c-2.24,1.65-4.76,2.81-7.56,3.48c-2.12,0.5-4.23,0.58-6.33,0.21c-2.11-0.36-4.11-1.04-6-2.03
			c-1.84-1.08-3.56-2.43-5.14-4.08c-1.58-1.64-2.95-3.52-4.1-5.62c4.53-3.1,9.02-6.18,13.49-9.23c4.47-3.05,8.96-6.13,13.49-9.23
			c-1.65-1.77-3.65-3.03-5.99-3.76c-2.34-0.74-4.84-0.79-7.51-0.16c-1.84,0.44-3.47,1.17-4.89,2.2c-1.41,1.02-2.55,2.29-3.42,3.79
			l-5.09-3.65C451.67,672.39,453.32,670.59,455.3,669.1z M476.15,696.98c1.6-1.29,2.88-2.84,3.81-4.65
			c0.71-1.54,1.14-3.23,1.28-5.07c0.14-1.84-0.12-3.69-0.79-5.55c-3.53,2.43-7.05,4.86-10.54,7.28c-3.5,2.42-7.02,4.82-10.57,7.18
			c1.52,1.51,3.22,2.6,5.11,3.27c1.89,0.67,3.86,0.75,5.91,0.27C472.61,699.17,474.54,698.26,476.15,696.98z"/>
		<path d="M439.98,674.67l-0.1,6.32l-8.11-0.13l-0.44,26.84l7.26,0.12l-0.1,6.32l-12.95-0.21l-0.07-2.32
			c-0.05-1.48-0.1-2.79-0.15-3.95s-0.13-2.48-0.25-3.95c-1.53,3.34-3.8,5.97-6.81,7.89c-3.01,1.92-6.52,2.88-10.52,2.88
			c-3.72-0.06-6.74-1.08-9.06-3.04c-2.32-1.97-3.63-4.53-3.93-7.7c-1.53,3.2-3.79,5.71-6.81,7.52c-3.01,1.81-6.45,2.72-10.31,2.73
			c-4-0.06-7.14-1.21-9.42-3.42c-2.28-2.21-3.46-5.08-3.55-8.59l0.36-22.21l-7.26-0.12l0.1-6.32l21.89,0.35l-0.1,6.32l-8-0.13
			l-0.32,19.58c0.11,2.11,0.83,3.92,2.18,5.46c1.34,1.53,3.38,2.39,6.12,2.57c1.97,0.03,3.85-0.27,5.65-0.91
			c1.8-0.64,3.38-1.54,4.73-2.71c1.42-1.17,2.57-2.56,3.44-4.16c0.87-1.6,1.32-3.35,1.35-5.24l0.23-14.21l-7.16-0.12l0.1-6.32
			l21.89,0.35l-0.1,6.32l-8.11-0.13l-0.32,19.58c0.11,2.11,0.83,3.92,2.17,5.46c1.34,1.53,3.42,2.39,6.22,2.58
			c2.04,0.03,3.95-0.27,5.75-0.91c1.8-0.64,3.38-1.54,4.73-2.71c1.42-1.17,2.55-2.57,3.38-4.21c0.83-1.64,1.27-3.44,1.3-5.4l0.23-14
			l-7.16-0.12l0.1-6.32L439.98,674.67z"/>
		<path d="M354.46,673.44l-1.94,6.01l-7.72-2.48l-8.23,25.55l6.91,2.23l-1.94,6.01l-12.33-3.97l0.61-2.24
			c0.39-1.42,0.72-2.7,1.01-3.82c0.29-1.12,0.59-2.41,0.91-3.85c-2.44,2.76-5.37,4.61-8.81,5.57c-3.44,0.96-7.08,0.85-10.91-0.3
			c-3.54-1.14-6.13-2.99-7.78-5.55c-1.65-2.56-2.15-5.39-1.52-8.51c-2.39,2.62-5.29,4.36-8.7,5.22c-3.41,0.86-6.96,0.73-10.66-0.39
			c-3.81-1.23-6.48-3.23-8.02-6.01c-1.54-2.78-1.83-5.86-0.89-9.25l6.81-21.15l-6.91-2.23l1.94-6.01l20.84,6.71l-1.94,6.01
			l-7.62-2.45l-6,18.64c-0.51,2.05-0.35,4,0.49,5.85c0.84,1.86,2.54,3.27,5.1,4.24c1.87,0.6,3.76,0.86,5.67,0.77
			c1.91-0.09,3.68-0.49,5.31-1.22c1.7-0.71,3.2-1.7,4.5-2.98c1.3-1.28,2.23-2.82,2.82-4.62l4.35-13.53l-6.81-2.19l1.94-6.01
			l20.84,6.71l-1.94,6.01l-7.72-2.48l-6,18.64c-0.51,2.05-0.35,4,0.49,5.85c0.84,1.86,2.58,3.28,5.2,4.27
			c1.94,0.62,3.86,0.89,5.77,0.81c1.91-0.09,3.68-0.49,5.31-1.22c1.7-0.71,3.19-1.72,4.46-3.04c1.27-1.32,2.21-2.92,2.81-4.79
			l4.29-13.33l-6.81-2.19l1.94-6.01L354.46,673.44z"/>
		<path d="M248.77,629.82c2.46,0.35,4.85,1.25,7.19,2.68c2.45,1.5,4.49,3.39,6.1,5.65c1.62,2.27,2.73,4.65,3.33,7.16
			c0.63,2.61,0.75,5.25,0.38,7.95c-0.37,2.69-1.31,5.27-2.82,7.72c-1.47,2.39-3.32,4.38-5.57,5.97c-2.25,1.59-4.67,2.69-7.28,3.32
			c-2.51,0.6-5.14,0.7-7.89,0.29c-2.75-0.41-5.35-1.37-7.81-2.87c-1.85-1.14-3.4-2.58-4.64-4.32c-1.23-1.74-2.17-3.64-2.82-5.68
			c-0.55-2.06-0.8-4.24-0.76-6.52c0.04-2.28,0.39-4.57,1.07-6.88c5.4,1,10.75,2,16.07,2.99c5.32,0.99,10.67,1.99,16.07,2.99
			c0.08-2.42-0.44-4.72-1.58-6.89c-1.14-2.18-2.87-3.98-5.2-5.41c-1.62-0.99-3.28-1.62-5.01-1.9c-1.72-0.27-3.42-0.18-5.1,0.27
			l-1.03-6.18C243.88,629.58,246.31,629.47,248.77,629.82z M243.84,664.27c2.05,0.22,4.04,0.03,5.98-0.59
			c1.59-0.59,3.09-1.48,4.48-2.68c1.4-1.2,2.52-2.7,3.36-4.48c-4.22-0.77-8.42-1.54-12.61-2.29c-4.19-0.75-8.37-1.55-12.55-2.38
			c0.01,2.14,0.44,4.12,1.31,5.92c0.87,1.81,2.2,3.26,4,4.36C239.78,663.33,241.79,664.05,243.84,664.27z"/>
		<path d="M211.42,600.83l-4.71,4.21l-3.72-4.16l-45.48,40.74l3.72,4.16l-4.71,4.21l-15.8-17.64c-2.25-2.51-4.03-5.03-5.36-7.56
			c-1.33-2.53-2.1-5.02-2.31-7.47c-0.21-2.45,0.19-4.86,1.22-7.24c1.03-2.38,2.74-4.65,5.15-6.8c3.24-2.9,6.79-4.67,10.65-5.3
			c3.86-0.63,7.67,0.25,11.41,2.64c-1.04-1.8-1.82-3.72-2.33-5.76c-0.51-2.04-0.65-4.1-0.44-6.17c0.21-2.08,0.8-4.11,1.75-6.09
			c0.96-1.99,2.37-3.82,4.25-5.51c2.35-2.11,4.84-3.46,7.46-4.06c2.62-0.6,5.23-0.61,7.83-0.02c2.66,0.54,5.22,1.59,7.69,3.14
			c2.48,1.55,4.69,3.43,6.66,5.62L211.42,600.83z M173.32,618.57l-8.36-9.33c-3.04-3.4-6.44-5.21-10.18-5.44
			c-3.74-0.23-7.18,1.06-10.31,3.87c-1.78,1.59-3.02,3.25-3.74,4.98c-0.72,1.73-0.97,3.44-0.77,5.14c0.16,1.65,0.66,3.29,1.52,4.93
			c0.85,1.64,2.01,3.27,3.46,4.89l8.15,9.1L173.32,618.57z M198.57,595.95l-8.5-9.49c-1.59-1.78-3.29-3.25-5.09-4.42
			c-1.8-1.17-3.68-1.95-5.65-2.36c-1.87-0.4-3.72-0.39-5.56,0.03c-1.84,0.42-3.59,1.38-5.27,2.88c-1.83,1.64-3.06,3.45-3.69,5.43
			c-0.63,1.98-0.78,4-0.44,6.05c0.33,2.06,1.05,4.12,2.16,6.19c1.1,2.07,2.45,4,4.04,5.78l7.45,8.31L198.57,595.95z"/>
		<path d="M160.58,536.08c2.03,1.43,3.76,3.31,5.2,5.64c1.51,2.45,2.47,5.06,2.88,7.81c0.42,2.75,0.32,5.38-0.28,7.89
			c-0.62,2.61-1.71,5.03-3.26,7.26c-1.55,2.23-3.56,4.1-6.01,5.61c-2.39,1.47-4.95,2.4-7.67,2.8c-2.72,0.4-5.39,0.28-7.99-0.34
			c-2.51-0.6-4.9-1.71-7.17-3.32c-2.27-1.61-4.15-3.65-5.66-6.1c-1.14-1.85-1.86-3.84-2.17-5.95c-0.31-2.11-0.29-4.23,0.06-6.34
			c0.45-2.09,1.21-4.14,2.27-6.15c1.07-2.02,2.42-3.9,4.07-5.65c4.36,3.34,8.68,6.65,12.97,9.95c4.29,3.3,8.61,6.61,12.97,9.95
			c1.17-2.12,1.74-4.41,1.72-6.86s-0.75-4.85-2.19-7.18c-0.99-1.61-2.19-2.93-3.61-3.96c-1.41-1.03-2.97-1.72-4.67-2.07l1.89-5.98
			C156.33,533.65,158.55,534.65,160.58,536.08z M140.57,564.55c1.72,1.12,3.59,1.85,5.6,2.18c1.69,0.2,3.43,0.08,5.21-0.36
			c1.79-0.44,3.47-1.26,5.03-2.47c-3.41-2.6-6.81-5.19-10.2-7.76c-3.39-2.57-6.76-5.18-10.11-7.81c-0.97,1.91-1.47,3.87-1.52,5.87
			c-0.04,2,0.48,3.9,1.58,5.7C137.38,561.88,138.85,563.43,140.57,564.55z"/>
		<path d="M152.95,520.55l-5.78,2.56l-3.19-7.22l-60.66,26.83l2.9,6.55l-5.78,2.55l-5.58-12.61l66.43-29.38l-2.98-6.74l5.78-2.56
			L152.95,520.55z"/>
		<path d="M141.75,494.37l-6.01,1.94l-2.42-7.51l-63.12,20.35l2.2,6.81l-6.01,1.94l-4.23-13.13l69.14-22.29l-2.26-7.01l6.01-1.94
			L141.75,494.37z"/>
		<path d="M127.37,439.97c1.37,2.07,2.29,4.46,2.78,7.15c0.51,2.83,0.45,5.61-0.17,8.32c-0.62,2.71-1.67,5.13-3.14,7.25
			c-1.53,2.2-3.43,4.05-5.69,5.56c-2.26,1.51-4.81,2.52-7.64,3.02c-2.76,0.49-5.48,0.43-8.16-0.2c-2.68-0.63-5.12-1.71-7.32-3.24
			c-2.12-1.47-3.94-3.38-5.46-5.71c-1.52-2.33-2.54-4.91-3.04-7.74c-0.38-2.14-0.33-4.25,0.15-6.34c0.48-2.08,1.27-4.04,2.37-5.88
			c1.18-1.78,2.63-3.41,4.36-4.9c1.73-1.49,3.68-2.74,5.85-3.77c2.84,4.7,5.65,9.36,8.44,14c2.79,4.63,5.6,9.3,8.44,14
			c1.86-1.54,3.23-3.46,4.1-5.76c0.87-2.29,1.07-4.79,0.59-7.48c-0.33-1.87-0.97-3.53-1.91-5.01c-0.94-1.47-2.14-2.68-3.59-3.64
			l3.94-4.88C124.3,436.16,126,437.9,127.37,439.97z M98.35,459.17c1.19,1.68,2.67,3.04,4.42,4.08c1.5,0.8,3.16,1.33,4.99,1.57
			c1.83,0.25,3.69,0.09,5.58-0.46c-2.22-3.67-4.44-7.31-6.66-10.95c-2.22-3.63-4.4-7.29-6.56-10.96c-1.6,1.43-2.78,3.06-3.56,4.91
			c-0.77,1.85-0.98,3.81-0.61,5.88C96.35,455.52,97.16,457.5,98.35,459.17z"/>
		<path d="M124.1,392.85l-6.27-0.74l0.79-6.69l-60.64-7.11L57.19,385l-6.27-0.74l5.97-50.92l16.1,1.89l-0.74,6.27l-9.83-1.15
			l-3.68,31.37l26.87,3.15l3.94-33.56l6.27,0.74l-3.94,33.56l27.5,3.23l1.17-9.93l6.27,0.74L124.1,392.85z"/>
		<path d="M139.53,309.62c0.26,2.47-0.02,5.01-0.83,7.62c-0.86,2.75-2.19,5.18-3.98,7.3c-1.8,2.12-3.84,3.78-6.13,4.98
			c-2.37,1.25-4.91,2.02-7.61,2.31c-2.7,0.3-5.43,0.02-8.17-0.84c-2.68-0.83-5.07-2.15-7.15-3.94c-2.09-1.79-3.76-3.87-5-6.24
			c-1.2-2.28-1.94-4.81-2.21-7.58c-0.28-2.77,0.01-5.53,0.87-8.27c0.65-2.08,1.67-3.93,3.05-5.55c1.39-1.62,2.99-3,4.81-4.12
			c1.87-1.03,3.91-1.81,6.13-2.33c2.22-0.52,4.53-0.74,6.93-0.65c0.35,5.48,0.7,10.91,1.04,16.31c0.34,5.4,0.69,10.84,1.04,16.31
			c2.36-0.51,4.46-1.59,6.3-3.22c1.83-1.63,3.16-3.76,3.97-6.37c0.56-1.81,0.77-3.58,0.61-5.32c-0.16-1.74-0.66-3.37-1.51-4.88
			l5.74-2.51C138.56,304.82,139.27,307.15,139.53,309.62z M104.92,313.29c0.29,2.04,0.97,3.92,2.04,5.65c0.96,1.4,2.2,2.63,3.7,3.69
			c1.51,1.06,3.23,1.78,5.17,2.16c-0.28-4.28-0.57-8.54-0.87-12.79c-0.29-4.24-0.55-8.5-0.77-12.75c-2.08,0.53-3.88,1.44-5.42,2.72
			c-1.54,1.28-2.62,2.93-3.25,4.94C104.84,309.13,104.64,311.25,104.92,313.29z"/>
		<path d="M142.99,294.02l-5.42-3.25l4.17-6.95l-23.02-13.81l-3.74,6.23l-5.42-3.25l6.66-11.1l2.04,1.1c1.3,0.7,2.46,1.32,3.49,1.85
			c1.03,0.54,2.21,1.12,3.55,1.76c-2.13-3-3.27-6.28-3.42-9.85c-0.15-3.57,0.77-7.09,2.77-10.55c1.91-3.19,4.3-5.3,7.17-6.32
			c2.87-1.02,5.74-0.87,8.63,0.45c-2.01-2.92-3.05-6.14-3.11-9.66c-0.06-3.51,0.87-6.94,2.8-10.29c2.06-3.43,4.62-5.58,7.67-6.45
			c3.06-0.87,6.13-0.46,9.21,1.23l19.05,11.43l3.74-6.23l5.42,3.25l-11.26,18.78l-5.42-3.25l4.12-6.86l-16.79-10.07
			c-1.88-0.96-3.81-1.24-5.81-0.85c-2,0.4-3.76,1.73-5.29,4.01c-1.01,1.69-1.69,3.47-2.04,5.34c-0.35,1.88-0.35,3.7-0.02,5.45
			c0.3,1.82,0.93,3.5,1.88,5.06c0.95,1.55,2.24,2.82,3.86,3.79l12.19,7.31l3.68-6.14l5.42,3.25l-11.26,18.78l-5.42-3.25l4.17-6.95
			l-16.79-10.07c-1.88-0.96-3.81-1.24-5.81-0.85c-2,0.4-3.78,1.77-5.34,4.1c-1.05,1.75-1.74,3.56-2.09,5.44
			c-0.35,1.88-0.35,3.7-0.02,5.45c0.3,1.82,0.95,3.5,1.95,5.04c1,1.54,2.34,2.82,4.03,3.83l12.01,7.2l3.68-6.14l5.42,3.25
			L142.99,294.02z"/>
		<path d="M187.52,220.87l-4.17-4.74l6.08-5.36l-17.74-20.15l-5.45,4.8l-4.17-4.74l9.72-8.56l1.61,1.67c1.03,1.06,1.95,2,2.77,2.82
			c0.82,0.82,1.77,1.74,2.85,2.75c-1.12-3.5-1.21-6.98-0.27-10.42c0.94-3.44,2.89-6.52,5.84-9.21c2.79-2.46,5.71-3.74,8.75-3.84
			c3.04-0.1,5.73,0.91,8.09,3.05c-1.03-3.4-1.04-6.78-0.03-10.15c1.01-3.37,2.94-6.35,5.79-8.96c3-2.64,6.09-3.91,9.27-3.81
			c3.18,0.1,5.98,1.43,8.4,3.97l14.68,16.67l5.45-4.8l4.17,4.74l-16.44,14.47l-4.17-4.74l6.01-5.29l-12.94-14.7
			c-1.5-1.49-3.26-2.34-5.28-2.57c-2.02-0.23-4.11,0.51-6.26,2.21c-1.48,1.3-2.66,2.79-3.57,4.47c-0.9,1.68-1.46,3.41-1.67,5.19
			c-0.27,1.82-0.18,3.62,0.25,5.39c0.44,1.77,1.28,3.36,2.53,4.79l9.39,10.67l5.37-4.73l4.17,4.74l-16.44,14.47l-4.17-4.74
			l6.08-5.36l-12.94-14.7c-1.5-1.49-3.26-2.34-5.28-2.57c-2.02-0.23-4.14,0.53-6.34,2.28c-1.53,1.35-2.74,2.86-3.65,4.54
			c-0.9,1.68-1.46,3.41-1.67,5.19c-0.27,1.82-0.16,3.62,0.33,5.39c0.48,1.77,1.38,3.4,2.67,4.87l9.25,10.51l5.37-4.73l4.17,4.74
			L187.52,220.87z"/>
		<path d="M279.08,152.33c-1.56,1.93-3.55,3.54-5.97,4.81c-2.55,1.34-5.21,2.13-7.98,2.36c-2.77,0.23-5.39-0.03-7.86-0.8
			c-2.56-0.79-4.9-2.04-7.03-3.73c-2.12-1.69-3.86-3.82-5.2-6.36c-1.31-2.48-2.07-5.1-2.29-7.84c-0.22-2.74,0.07-5.39,0.87-7.95
			c0.76-2.46,2.02-4.77,3.78-6.93c1.76-2.16,3.91-3.91,6.46-5.25c1.92-1.01,3.95-1.61,6.08-1.78c2.13-0.17,4.24-0.01,6.32,0.48
			c2.05,0.58,4.05,1.48,5.99,2.67c1.94,1.2,3.73,2.67,5.37,4.43c-3.62,4.13-7.21,8.22-10.78,12.29c-3.57,4.06-7.16,8.16-10.78,12.29
			c2.04,1.31,4.28,2.03,6.73,2.16s4.89-0.43,7.31-1.71c1.68-0.88,3.07-2,4.19-3.34c1.12-1.34,1.91-2.85,2.38-4.52l5.84,2.28
			C281.78,148.24,280.63,150.4,279.08,152.33z M251.98,130.49c-1.24,1.64-2.08,3.46-2.54,5.45c-0.31,1.67-0.3,3.41,0.02,5.23
			c0.32,1.81,1.03,3.54,2.14,5.18c2.82-3.23,5.62-6.45,8.41-9.67c2.79-3.21,5.61-6.41,8.46-9.58c-1.84-1.09-3.76-1.72-5.76-1.9
			c-2-0.18-3.93,0.23-5.79,1.21C254.85,127.49,253.21,128.85,251.98,130.49z"/>
	</g>
</g>
<g id="レイヤー_2">
	<g>
		<path d="M258.13,223.87h82.06c45.24,0,65.48,23.75,65.48,52.28c0,24.08-13.64,39.74-29.26,45.36
			c14.45,4.75,35.95,19.45,35.95,49.45c0,38.59-29.59,61.28-70.01,61.28h-84.22V223.87z M334.93,309.68
			c28.53,0,39.74-11.46,39.74-30.71c0-17.84-12.9-30-36.03-30h-50.16v60.71H334.93z M288.48,407.15h49.42
			c25.83,0,42.66-11.89,42.66-36.52c0-21.52-13.83-35.87-46.99-35.87h-45.08V407.15z"/>
	</g>
	<g>
		<path d="M436.33,342.21H572.4v26.18H466.71v64.48h99.06v26.18h-99.06v91.53h-30.38V342.21z"/>
	</g>
</g>
</svg>
