<?xml version="1.0" encoding="utf-8"?>
<!-- Generator: Adobe Illustrator 24.3.0, SVG Export Plug-In . SVG Version: 6.00 Build 0)  -->
<svg version="1.1" id="レイヤー_1" xmlns="http://www.w3.org/2000/svg" xmlns:xlink="http://www.w3.org/1999/xlink" x="0px"
	 y="0px" viewBox="0 0 1758 388.05" style="enable-background:new 0 0 1758 388.05;" xml:space="preserve">
<style type="text/css">
	.st0{fill:#666666;}
</style>
<g>
	<path class="st0" d="M74.62,295.72H12.84v-3.12c14.93,0,20.13-11.8,20.13-35.4V88.85c0-21.52-4.86-34.36-20.13-34.36v-3.12h61.78
		c48.25,0,87.12,5.21,87.12,59.7c0,54.84-48.94,59.35-55.88,59.35c22.56,0,72.2,4.86,72.2,63.17
		C178.06,293.64,134.67,295.72,74.62,295.72z M61.09,55.19v114.89h24.64c22.56,0,44.08-6.25,44.08-59.35
		c0-50.68-28.81-55.53-52.41-55.53H61.09z M85.73,173.89H61.09V291.9H77.4c34.71,0,68.03,0.69,68.03-59.7
		C145.43,175.28,112.8,173.89,85.73,173.89z"/>
	<path class="st0" d="M339.11,255.11c-2.43,15.62-21.17,43.73-59.35,43.73c-42,0-72.89-32.97-72.89-81.57
		c0-52.41,32.28-85.04,72.54-85.04c35.75,0,65.25,25.34,65.25,80.18H233.59c0.69,53.1,23.26,72.54,52.41,73.93
		c22.21,1.04,44.77-14.58,50.33-32.28L339.11,255.11z M321.06,208.25c0-53.8-26.73-72.2-42-72.2c-19.78,0-45.47,23.6-45.47,72.2
		H321.06z"/>
	<path class="st0" d="M422.06,295.72H370v-3.82c13.19-3.82,13.88-5.55,13.88-23.25V70.8c0-12.15-2.78-17.01-17.35-18.4v-3.82
		l41.3-7.64v227.69c0,19.09,1.74,20.13,14.23,23.25V295.72z"/>
	<path class="st0" d="M495.3,295.72h-52.06v-3.82c13.19-3.82,13.88-5.55,13.88-23.25V70.8c0-12.15-2.78-17.01-17.35-18.4v-3.82
		l41.3-7.64v227.69c0,19.09,1.74,20.13,14.23,23.25V295.72z"/>
	<path class="st0" d="M649.75,255.11c-2.43,15.62-21.17,43.73-59.35,43.73c-42,0-72.89-32.97-72.89-81.57
		c0-52.41,32.28-85.04,72.54-85.04c35.75,0,65.25,25.34,65.25,80.18H544.24c0.69,53.1,23.26,72.54,52.41,73.93
		c22.21,1.04,44.77-14.58,50.33-32.28L649.75,255.11z M631.7,208.25c0-53.8-26.73-72.2-42-72.2c-19.78,0-45.47,23.6-45.47,72.2
		H631.7z"/>
	<path class="st0" d="M923.6,51.37v60.74h-3.82c-2.78-57.96-47.2-56.92-88.16-56.92h-21.87v115.23h27.42
		c13.88,0,43.39,0,44.77-34.36h3.82v72.89h-3.82c-1.39-34.71-30.89-34.71-44.77-34.71h-27.42v82.26c0,31.59,9.02,35.4,24.64,35.4
		v3.82h-70.81v-3.82c14.58,0,17.7-9.72,17.7-33.32V82.95c0-21.52-2.43-27.77-17.7-27.77v-3.82H923.6z"/>
	<path class="st0" d="M1073.89,255.11c-2.43,15.62-21.17,43.73-59.35,43.73c-42,0-72.89-32.97-72.89-81.57
		c0-52.41,32.28-85.04,72.54-85.04c35.75,0,65.25,25.34,65.25,80.18H968.38c0.69,53.1,23.25,72.54,52.41,73.93
		c22.21,1.04,44.78-14.58,50.33-32.28L1073.89,255.11z M1055.84,208.25c0-53.8-26.73-72.2-42-72.2c-19.78,0-45.47,23.6-45.47,72.2
		H1055.84z"/>
	<path class="st0" d="M1338.72,295.72H1287v-3.47c13.19-3.82,13.88-5.9,13.88-23.6V190.2c0-27.77-9.72-44.77-34.71-44.77
		c-20.13,0-31.24,19.44-34.71,31.24c0,3.12,0,7.98,0,12.84v79.14c0,19.09,2.08,20.48,14.23,23.6v3.47h-51.72v-3.47
		c13.19-3.82,13.88-5.9,13.88-23.6V190.2c0-27.77-9.02-44.77-34.36-44.77c-20.13,0-31.93,19.09-35.4,30.54v92.67
		c0,19.09,1.74,20.13,14.23,23.25v3.82h-52.06v-3.82c13.19-3.82,13.88-5.55,13.88-23.25V163.13c0-12.15-2.78-17.35-17.35-19.44
		v-3.47l41.3-7.98v35.4c6.59-19.44,25.69-35.4,47.55-35.4c24.3,0,39.92,10.76,44.43,37.49c6.25-20.48,25.68-37.49,47.9-37.49
		c28.81,0,46.51,14.92,46.51,56.58v79.83c0,19.09,1.74,20.48,14.23,23.6V295.72z"/>
	<path class="st0" d="M1588.97,295.72h-51.72v-3.47c13.19-3.82,13.88-5.9,13.88-23.6V190.2c0-27.77-9.72-44.77-34.71-44.77
		c-20.13,0-31.24,19.44-34.71,31.24c0,3.12,0,7.98,0,12.84v79.14c0,19.09,2.08,20.48,14.23,23.6v3.47h-51.72v-3.47
		c13.19-3.82,13.88-5.9,13.88-23.6V190.2c0-27.77-9.02-44.77-34.36-44.77c-20.13,0-31.93,19.09-35.4,30.54v92.67
		c0,19.09,1.74,20.13,14.23,23.25v3.82h-52.06v-3.82c13.19-3.82,13.88-5.55,13.88-23.25V163.13c0-12.15-2.78-17.35-17.35-19.44
		v-3.47l41.3-7.98v35.4c6.59-19.44,25.69-35.4,47.55-35.4c24.3,0,39.92,10.76,44.43,37.49c6.25-20.48,25.68-37.49,47.9-37.49
		c28.81,0,46.51,14.92,46.51,56.58v79.83c0,19.09,1.74,20.48,14.23,23.6V295.72z"/>
	<path class="st0" d="M1738.57,255.11c-2.43,15.62-21.17,43.73-59.35,43.73c-42,0-72.89-32.97-72.89-81.57
		c0-52.41,32.28-85.04,72.54-85.04c35.75,0,65.25,25.34,65.25,80.18h-111.07c0.69,53.1,23.25,72.54,52.41,73.93
		c22.21,1.04,44.78-14.58,50.33-32.28L1738.57,255.11z M1720.52,208.25c0-53.8-26.73-72.2-42-72.2c-19.78,0-45.47,23.6-45.47,72.2
		H1720.52z"/>
</g>
</svg>
