<?xml version="1.0" encoding="utf-8"?>
<!-- Generator: Adobe Illustrator 24.3.0, SVG Export Plug-In . SVG Version: 6.00 Build 0)  -->
<svg version="1.1" id="レイヤー_1" xmlns="http://www.w3.org/2000/svg" xmlns:xlink="http://www.w3.org/1999/xlink" x="0px"
	 y="0px" viewBox="0 0 800 800" style="enable-background:new 0 0 800 800;" xml:space="preserve">
<style type="text/css">
	.st0{fill:#FBD129;}
	.st1{fill:#CE20A6;}
	.st2{fill:none;}
</style>
<g>
	<path class="st0" d="M679.41,95.18l6.29,14.78c-19.29,3.57-37.22,8.81-53.78,15.72l-8.49,3.46c15.1,7.55,27.09,17.82,36.01,30.82
		c8.91,13,13.37,24.9,13.37,35.69c0,10.8-0.94,19.87-2.83,27.2c-1.89,7.34-4.2,13.95-6.92,19.81c-2.73,5.87-6.35,12-10.85,18.4
		c-4.51,6.4-8.65,11.74-12.42,16.04c-3.77,4.3-8.44,9.12-13.99,14.47c-5.56,5.35-9.91,9.39-13.05,12.11
		c-5.66,4.61-12.69,10.27-21.07,16.98c29.98,12.37,52.83,27,68.56,43.87c15.73,16.88,23.59,37.95,23.59,63.21
		c0,25.27-7.6,49.74-22.8,73.43c-15.2,23.7-35.33,42.56-60.38,56.61c-25.06,14.04-51.63,21.07-79.72,21.07
		c-31.03,0-54.83-8.7-71.39-26.1c-9.02-9.43-13.52-20.44-13.52-33.02c0-12.58,3.82-22.75,11.48-30.51
		c7.65-7.75,16.93-11.64,27.83-11.64c10.9,0,19.5,2.73,25.79,8.18c6.29,5.45,9.44,11.79,9.44,19.02c0,7.23-1.26,12.89-3.77,16.98
		c-2.52,4.09-5.5,7.29-8.96,9.59c-3.46,2.31-7.07,4.2-10.85,5.66c-6.5,2.52-10.9,3.77-13.21,3.77c0,9.23,11.43,14.99,34.28,17.3
		c3.98,0.42,7.65,0.63,11.01,0.63c29.14,0,53.57-11.01,73.28-33.02c19.7-22.01,29.56-47.69,29.56-77.05
		c0-14.67-3.25-28.25-9.75-40.73c-6.5-12.47-14.47-22.49-23.9-30.03c-9.43-7.55-18.82-14-28.15-19.34
		c-9.33-5.35-17.25-9.48-23.74-12.42c-6.5-2.93-9.75-4.88-9.75-5.82c0-0.94,3.15-3.51,9.44-7.71c6.29-4.19,14-9.69,23.12-16.51
		c9.12-6.81,18.18-14.62,27.2-23.43c9.01-8.81,16.67-19.55,22.96-32.23c6.29-12.68,9.44-25.42,9.44-38.21
		c0-12.79-3.57-26.47-10.69-41.04c-7.13-14.57-17.51-24.79-31.13-30.66c-39.42,24.32-67.83,61.95-85.23,112.9
		c-7.55,21.81-13.21,41.41-16.98,58.81c-9.23,43.82-15.94,74.17-20.13,91.04c-4.2,16.88-12.53,35.59-25,56.14
		c-12.48,20.55-27.94,39-46.39,55.35c-18.45,16.35-40.88,29.25-67.3,38.68c-26.42,9.44-55.14,14.15-86.17,14.15
		c-42.56,0-77.16-9.75-103.78-29.25c-20.97-15.51-31.45-37.11-31.45-64.79c0-18.66,4.51-35.43,13.52-50.32
		c9.01-14.88,20.76-26.62,35.22-35.22c29.35-17.61,61.32-26.42,95.92-26.42c0-33.96,7.97-66.93,23.9-98.91
		c15.93-31.97,37.06-59.54,63.37-82.71c26.31-23.16,57.13-41.77,92.46-55.82c35.33-14.04,71.65-21.07,108.97-21.07
		c13,0,34.07,1.78,63.21,5.35C630.66,104.2,660.12,96.44,679.41,95.18z M274.35,467.22l-19.5,5.66
		c-3.57-9.22-7.08-21.59-10.54-37.11c-3.46-15.51-5.19-25.16-5.19-28.93c-15.72,0-31.61,2.31-47.64,6.92
		c-16.04,4.62-28.83,9.54-38.37,14.78c-9.54,5.24-17.72,12.74-24.53,22.49c-6.81,9.75-10.22,21.07-10.22,33.97s3.3,24.27,9.9,34.12
		c6.61,9.86,15.36,17.3,26.26,22.33c20.96,9.86,42.93,14.78,65.88,14.78s42.72-2.41,59.28-7.23c16.56-4.82,30.55-11.21,41.98-19.18
		c11.42-7.97,21.86-18.03,31.29-30.19c9.44-12.16,17.09-24.58,22.96-37.27c5.87-12.68,11.64-27.2,17.3-43.56
		c5.66-16.35,10.38-31.66,14.15-45.92c10.27-37.94,20.6-69.71,30.98-95.29c10.38-25.58,25.73-50.79,46.07-75.63
		c20.33-24.84,43.4-45.23,69.19-61.17c-12.58-2.93-28.62-4.4-48.12-4.4c-19.5,0-41.67,4.25-66.51,12.74
		c-24.84,8.49-47.96,20.34-69.35,35.54c-21.38,15.2-40.52,32.55-57.39,52.05c-16.88,19.5-30.14,41.04-39.78,64.63
		c-9.64,23.59-14.47,47.23-14.47,70.92c46.12,9.44,79.46,26.53,100.01,51.26l-13.21,13.84c-21.6-14.04-37.74-22.33-48.43-24.84
		s-17.09-3.98-19.18-4.4c-9.65-1.26-16.25-1.89-19.81-1.89c2.52,15.52,7.02,32.71,13.52,51.58L274.35,467.22z"/>
</g>
<g>
	<path class="st1" d="M650.05,133.03l6.29,14.78c-19.29,3.57-37.22,8.81-53.78,15.72l-8.49,3.46c15.1,7.55,27.09,17.82,36.01,30.82
		c8.91,13,13.37,24.9,13.37,35.69c0,10.8-0.94,19.87-2.83,27.2c-1.89,7.34-4.2,13.95-6.92,19.81c-2.73,5.87-6.35,12.01-10.85,18.4
		c-4.51,6.4-8.65,11.74-12.42,16.04c-3.77,4.3-8.44,9.12-13.99,14.47c-5.56,5.34-9.91,9.38-13.05,12.11
		c-5.66,4.61-12.69,10.27-21.07,16.98c29.98,12.37,52.83,27,68.56,43.87c15.73,16.88,23.59,37.95,23.59,63.21
		c0,25.27-7.6,49.74-22.8,73.43c-15.2,23.7-35.33,42.56-60.38,56.61c-25.06,14.04-51.63,21.07-79.72,21.07
		c-31.03,0-54.83-8.7-71.39-26.1c-9.02-9.43-13.52-20.44-13.52-33.02c0-12.58,3.82-22.75,11.48-30.51
		c7.65-7.75,16.93-11.64,27.83-11.64c10.9,0,19.5,2.73,25.79,8.18c6.29,5.45,9.44,11.79,9.44,19.02c0,7.23-1.26,12.89-3.77,16.98
		c-2.52,4.09-5.5,7.29-8.96,9.59c-3.46,2.31-7.07,4.2-10.85,5.66c-6.5,2.52-10.9,3.77-13.21,3.77c0,9.23,11.43,14.99,34.28,17.3
		c3.98,0.42,7.65,0.63,11.01,0.63c29.14,0,53.57-11.01,73.28-33.02c19.7-22.01,29.56-47.69,29.56-77.05
		c0-14.67-3.25-28.25-9.75-40.73c-6.5-12.47-14.47-22.49-23.9-30.03c-9.43-7.55-18.82-14-28.15-19.34
		c-9.33-5.35-17.25-9.48-23.74-12.42c-6.5-2.93-9.75-4.88-9.75-5.82c0-0.94,3.15-3.51,9.44-7.71c6.29-4.19,14-9.69,23.12-16.51
		c9.12-6.81,18.18-14.62,27.2-23.43c9.01-8.8,16.67-19.55,22.96-32.23c6.29-12.68,9.44-25.42,9.44-38.21
		c0-12.79-3.57-26.47-10.69-41.04c-7.13-14.57-17.51-24.79-31.13-30.66c-39.42,24.32-67.83,61.95-85.23,112.9
		c-7.55,21.81-13.21,41.41-16.98,58.81c-9.23,43.82-15.94,74.17-20.13,91.04c-4.2,16.88-12.53,35.59-25,56.14
		c-12.48,20.55-27.94,39-46.39,55.35c-18.45,16.35-40.88,29.25-67.3,38.68c-26.42,9.44-55.14,14.15-86.17,14.15
		c-42.56,0-77.16-9.75-103.78-29.25c-20.97-15.51-31.45-37.11-31.45-64.79c0-18.66,4.51-35.43,13.52-50.32
		c9.01-14.88,20.76-26.62,35.22-35.22c29.35-17.61,61.32-26.42,95.92-26.42c0-33.96,7.97-66.93,23.9-98.91
		c15.93-31.97,37.06-59.54,63.37-82.71c26.31-23.16,57.13-41.77,92.46-55.82c35.33-14.04,71.65-21.07,108.97-21.07
		c13,0,34.07,1.78,63.21,5.35C601.31,142.04,630.76,134.28,650.05,133.03z M245,505.06l-19.5,5.66
		c-3.57-9.22-7.08-21.59-10.54-37.11c-3.46-15.51-5.19-25.16-5.19-28.93c-15.72,0-31.61,2.31-47.64,6.92
		c-16.04,4.62-28.83,9.54-38.37,14.78c-9.54,5.24-17.72,12.74-24.53,22.49c-6.81,9.75-10.22,21.07-10.22,33.97
		c0,12.89,3.3,24.27,9.9,34.12c6.61,9.86,15.36,17.3,26.26,22.33c20.96,9.86,42.93,14.78,65.88,14.78s42.72-2.41,59.28-7.23
		c16.56-4.82,30.55-11.21,41.98-19.18c11.42-7.97,21.86-18.03,31.29-30.19c9.44-12.16,17.09-24.58,22.96-37.27
		c5.87-12.68,11.64-27.2,17.3-43.56c5.66-16.35,10.38-31.66,14.15-45.92c10.27-37.94,20.6-69.71,30.98-95.29
		c10.38-25.58,25.73-50.79,46.07-75.63c20.33-24.84,43.4-45.23,69.19-61.17c-12.58-2.93-28.62-4.4-48.12-4.4
		c-19.5,0-41.67,4.25-66.51,12.74c-24.84,8.49-47.96,20.34-69.35,35.54c-21.38,15.2-40.52,32.55-57.39,52.05
		c-16.88,19.5-30.14,41.04-39.78,64.63c-9.64,23.59-14.47,47.23-14.47,70.92c46.12,9.44,79.46,26.53,100.01,51.26l-13.21,13.84
		c-21.6-14.04-37.74-22.33-48.43-24.84c-10.69-2.52-17.09-3.98-19.18-4.4c-9.65-1.26-16.25-1.89-19.81-1.89
		c2.52,15.52,7.02,32.71,13.52,51.58L245,505.06z"/>
</g>
<rect id="_x3C_スライス_x3E__1_" x="22" y="95.16" class="st2" width="715" height="576.61"/>
</svg>
